<svg width="335" height="221" viewBox="0 0 335 221" fill="none" xmlns="http://www.w3.org/2000/svg">
<path fill-rule="evenodd" clip-rule="evenodd" d="M157.117 74.2149C157.191 73.1484 157.513 63.1963 158.08 44.3587C158.223 39.6438 154.957 35.5084 150.337 34.5542C150.027 34.4902 149.872 34.4582 149.872 34.4582C144.297 34.0683 139.334 37.9703 138.398 43.4805L133.617 71.6097" fill="white"/>
<path d="M149.926 34.6747L150.376 34.7676C154.887 35.6995 158.076 39.738 157.938 44.3424C157.37 63.1671 157.049 73.128 156.974 74.1895C156.966 74.3149 157.06 74.4237 157.186 74.4325C157.311 74.4412 157.42 74.3467 157.429 74.2213C157.503 73.1498 157.824 63.2065 158.393 44.3561C158.538 39.5307 155.195 35.2984 150.468 34.3217L150.003 34.2258L149.973 34.2216C144.28 33.8236 139.214 37.8073 138.258 43.4329L133.477 71.5621C133.456 71.686 133.54 71.8036 133.664 71.8246C133.788 71.8457 133.905 71.7623 133.926 71.6383L138.707 43.5092C139.623 38.1193 144.473 34.3011 149.926 34.6747Z" fill="#417DB5"/>
<path fill-rule="evenodd" clip-rule="evenodd" d="M160.825 71.7394L163.267 52.7508C163.502 50.9228 162.211 49.2502 160.383 49.0151C160.241 48.9969 160.099 48.9878 159.957 48.9878C157.694 48.9878 155.687 50.4431 154.985 52.5943L148.727 71.752L160.825 71.7394Z" fill="white"/>
<path d="M161.021 71.828C161.135 71.8279 161.232 71.7429 161.246 71.6294L163.689 52.6408C163.94 50.688 162.561 48.9014 160.608 48.6502C160.457 48.6308 160.305 48.6211 160.153 48.6211C157.791 48.6211 155.698 50.1397 154.964 52.3845L148.706 71.5423C148.658 71.6895 148.768 71.8406 148.923 71.8406L161.021 71.828ZM160.82 71.3729L149.237 71.385L155.397 52.5259C156.069 50.4684 157.988 49.0764 160.153 49.0764C160.286 49.0764 160.418 49.0849 160.55 49.1018C162.253 49.3209 163.456 50.8794 163.237 52.5827L160.82 71.3729Z" fill="#417DB5"/>
<path fill-rule="evenodd" clip-rule="evenodd" d="M100.618 118.343L123.799 110.787C126.426 109.93 128.343 107.661 128.747 104.928L133.702 71.4487H160.564L155.811 113.987C154.974 121.48 150.938 128.244 144.741 132.54L118.374 150.82L100.618 118.343Z" fill="#E9F4FF"/>
<path fill-rule="evenodd" clip-rule="evenodd" d="M156.314 110.148C150.952 113.082 147.057 116.421 144.629 120.164C142.201 123.908 140.126 129.523 138.406 137.01C139.892 135.927 141.156 135.016 142.201 134.278C146.476 131.257 149.762 128.508 151.762 125.324C154.493 120.974 156.011 115.915 156.314 110.148Z" fill="#8C8C8C"/>
<path d="M127.137 108.203C127.139 108.2 127.141 108.197 127.143 108.194C127.149 108.186 127.155 108.178 127.162 108.171C127.893 107.229 128.388 106.101 128.569 104.875L133.52 71.4277C133.536 71.3161 133.632 71.2334 133.745 71.2334H160.607C160.742 71.2334 160.848 71.3514 160.833 71.4863L158.769 89.9605C158.804 90.0047 158.823 90.0621 158.818 90.1229C158.812 90.1872 158.78 90.2428 158.733 90.2802L156.083 113.998C155.237 121.572 151.151 128.407 144.881 132.738L118.655 150.855C118.571 150.913 118.458 150.908 118.38 150.843C114.771 147.833 111.767 144.015 109.37 139.391C106.978 134.778 104.293 127.634 101.311 117.954C101.274 117.835 101.34 117.709 101.459 117.671L123.733 110.565C125.105 110.127 126.28 109.292 127.137 108.203ZM108.94 115.762L101.812 118.036C104.76 127.582 107.415 134.632 109.774 139.181C112.115 143.696 115.037 147.429 118.539 150.382L125.223 145.765L108.94 115.762ZM109.381 115.621L125.599 145.505L144.622 132.364C150.784 128.107 154.799 121.39 155.63 113.948L158.272 90.3024L131.557 87.901C131.552 87.9006 131.547 87.9 131.542 87.8992L129.02 104.942C128.838 106.172 128.358 107.312 127.651 108.278L143.547 119.675C143.649 119.749 143.673 119.891 143.6 119.993C143.526 120.095 143.384 120.119 143.282 120.045L127.371 108.637C126.471 109.722 125.267 110.554 123.872 110.999L109.381 115.621ZM131.609 87.4486L158.323 89.8499L160.352 71.6887H133.941L131.609 87.4486Z" fill="#417DB5"/>
<path fill-rule="evenodd" clip-rule="evenodd" d="M58.8835 123.047C58.8835 123.047 51.8013 126.74 37.6368 134.126L43.6643 145.192L61.9187 132.899C59.8952 126.331 58.8835 123.047 58.8835 123.047Z" fill="#8C8C8C"/>
<path fill-rule="evenodd" clip-rule="evenodd" d="M199.718 173.281L195.317 137.465L197.594 136.403L207.003 122.44L208.672 121.985C209.276 121.841 209.731 121.841 210.038 121.985C210.345 122.13 210.749 122.534 211.252 123.199V165.693C210.918 166.496 210.614 167.053 210.341 167.362C210.069 167.671 209.613 167.975 208.976 168.272L199.718 173.281ZM159.198 204.847L188.033 194.224L189.398 198.17L208.217 203.026L208.976 204.392C208.804 205.395 208.602 206.103 208.369 206.516C208.135 206.929 207.68 207.385 207.003 207.882L167.696 217.14C166.883 217.221 166.226 217.12 165.724 216.836C165.221 216.552 164.716 215.996 164.206 215.167L159.198 204.847Z" fill="white"/>
<path d="M58.6695 122.858L37.4229 133.937C37.31 133.995 37.2673 134.135 37.3283 134.247L43.3558 145.313C43.4199 145.431 43.5715 145.468 43.6828 145.393L61.9372 133.1C62.0204 133.044 62.0571 132.941 62.0276 132.845L58.9923 122.993C58.9505 122.857 58.7956 122.792 58.6695 122.858ZM61.5427 132.817L43.636 144.876L37.839 134.233L58.6377 123.388L61.5427 132.817Z" fill="#417DB5"/>
<path fill-rule="evenodd" clip-rule="evenodd" d="M123.989 160.684V161.152L103.198 120.922L73.7561 133.367C74.3049 151.334 76.8199 163.272 81.3013 169.183C85.7826 175.093 93.7391 176.964 105.171 174.798H121.713L123.989 160.684Z" fill="#E9F4FF"/>
<path d="M124.26 160.685V161.152C124.26 161.24 124.217 161.306 124.156 161.344L121.98 174.835C121.963 174.945 121.867 175.026 121.756 175.026H105.235C93.7381 177.201 85.7022 175.308 81.1628 169.321C76.6446 163.362 74.1216 151.386 73.5713 133.374C73.5686 133.28 73.6238 133.194 73.7104 133.158L103.152 120.713C103.262 120.667 103.388 120.713 103.443 120.818L123.938 160.475C124.073 160.419 124.26 160.495 124.26 160.685ZM124.201 161.065L124.211 161.003L124.177 160.937C124.197 160.976 124.206 161.021 124.201 161.065ZM103.135 121.215L74.0314 133.516C74.5885 151.352 77.0939 163.201 81.5255 169.046C85.946 174.876 93.816 176.727 105.171 174.575L105.214 174.571H121.562L123.738 161.079L103.135 121.215Z" fill="#417DB5"/>
<path fill-rule="evenodd" clip-rule="evenodd" d="M118.526 150.82L120.043 153.703C115.38 157.382 111.687 159.962 108.965 161.443C106.242 162.924 103.258 164.29 100.011 165.541L98.1896 162.354C101.149 161.076 103.982 159.659 106.688 158.104C109.394 156.549 113.34 154.121 118.526 150.82Z" fill="#8C8C8C"/>
<path fill-rule="evenodd" clip-rule="evenodd" d="M127.48 212.587L199.415 173.584L195.469 137.617L124.141 172.674" fill="#8C8C8C"/>
<path d="M118.399 150.479C113.063 154.076 108.919 156.703 105.97 158.361C103.026 160.016 100.257 161.275 97.6627 162.138C97.5434 162.177 97.4789 162.306 97.5186 162.426C97.5583 162.545 97.6871 162.609 97.8064 162.57C100.43 161.697 103.225 160.426 106.193 158.758C109.155 157.093 113.308 154.46 118.653 150.857C118.757 150.787 118.785 150.645 118.715 150.541C118.644 150.437 118.503 150.409 118.399 150.479Z" fill="#417DB5"/>
<path d="M120.015 153.522C115.061 157.278 110.734 160.156 107.036 162.153C103.353 164.142 100.842 165.197 99.5354 165.314C99.4102 165.325 99.3178 165.436 99.329 165.561C99.3402 165.686 99.4508 165.779 99.576 165.767C100.966 165.643 103.514 164.573 107.252 162.554C110.973 160.544 115.319 157.654 120.29 153.885C120.39 153.809 120.41 153.666 120.334 153.566C120.258 153.466 120.115 153.446 120.015 153.522Z" fill="#417DB5"/>
<path d="M199.247 173.378C199.239 173.359 199.234 173.339 199.232 173.317L195.287 137.816L124.133 172.878C124.02 172.934 123.884 172.887 123.828 172.774C123.772 172.662 123.819 172.525 123.932 172.47L197.178 136.377L206.548 122.563C206.878 122.077 207.43 121.789 208.018 121.797C208.226 121.8 208.425 121.84 208.609 121.909C208.622 121.888 208.643 121.863 208.672 121.834C208.773 121.732 208.892 121.668 209.027 121.642C209.164 121.614 209.303 121.6 209.442 121.6C210.621 121.598 211.578 122.552 211.58 123.731L211.643 164.495C211.646 166.248 210.772 167.973 209.095 168.397L209.095 168.428C209.093 168.51 209.048 168.585 208.975 168.625L127.479 212.787C127.369 212.847 127.231 212.806 127.171 212.696C127.111 212.585 127.152 212.447 127.263 212.387L199.247 173.378ZM199.671 173.149L208.641 168.288L209.283 123.561C209.293 122.849 208.724 122.263 208.011 122.253C207.577 122.247 207.169 122.459 206.925 122.819L197.521 136.682C197.499 136.715 197.469 136.741 197.434 136.759L195.678 137.624C195.711 137.658 195.733 137.704 195.738 137.754L199.671 173.149ZM209.078 122.176C209.487 122.501 209.746 123.005 209.738 123.568L209.102 167.923C210.499 167.499 211.19 165.997 211.188 164.496L211.124 123.731C211.123 122.804 210.37 122.054 209.443 122.055C209.333 122.056 209.224 122.066 209.116 122.088C209.103 122.121 209.09 122.151 209.078 122.176Z" fill="#417DB5"/>
<path fill-rule="evenodd" clip-rule="evenodd" d="M70.114 167.98L72.4333 180.576L89.7324 211.11C94.2841 219.144 103.986 222.697 112.65 219.503L118.713 217.268C124.547 215.117 129.579 211.227 133.129 206.124L148.799 183.6L159.198 204.847L188.033 194.224L167.762 146.283C165.541 141.03 160.391 137.617 154.688 137.617C148.662 137.617 142.882 140.004 138.612 144.256L111.436 171.319" fill="#E9F4FF"/>
<path fill-rule="evenodd" clip-rule="evenodd" d="M137.496 145.356C142.353 149.1 147.411 151.781 152.672 153.4C157.934 155.018 163.751 154.664 170.125 152.337C168.702 147.624 167.134 144.336 165.42 142.473C163.379 140.254 159.572 138.278 157.377 137.768C154.497 137.1 149.177 137.873 144.933 139.893C142.89 140.864 140.412 142.686 137.496 145.356Z" fill="#8C8C8C"/>
<path d="M208.903 203.902L208.985 203.882L208.989 203.896C209.461 205.857 208.255 207.829 206.294 208.302L168.383 217.442C166.672 217.854 164.903 217.066 164.062 215.532C163.99 215.521 163.926 215.475 163.892 215.406L148.764 184.039L133.316 206.243C129.739 211.384 124.669 215.303 118.792 217.47L112.729 219.705C103.96 222.938 94.141 219.342 89.5343 211.211L72.2353 180.677C72.2228 180.655 72.2141 180.631 72.2095 180.606L69.8901 168.01C69.8673 167.886 69.9491 167.768 70.0727 167.745C70.1964 167.722 70.3151 167.804 70.3378 167.928L72.6503 180.486L89.9304 210.987C94.4272 218.924 104.012 222.434 112.571 219.278L118.635 217.043C124.424 214.908 129.418 211.048 132.942 205.983L148.612 183.459C148.712 183.316 148.929 183.334 149.004 183.49L159.189 204.608L187.699 194.104L170.59 153.572V153.572C160.466 158.507 149.149 156.14 136.668 146.501L111.597 171.469C111.508 171.558 111.364 171.557 111.275 171.468C111.186 171.379 111.186 171.235 111.275 171.146L138.451 144.084C142.764 139.789 148.602 137.378 154.688 137.378C160.482 137.378 165.713 140.848 167.966 146.186L188.165 194.039C188.201 194.064 188.23 194.101 188.246 194.145C188.26 194.182 188.263 194.221 188.258 194.258L189.759 197.814L207.588 202.315C208.225 202.476 208.718 202.981 208.863 203.622C208.884 203.716 208.898 203.809 208.903 203.902ZM208.63 204.95C208.391 205.322 208.011 205.604 207.546 205.71L164.535 215.442C165.304 216.711 166.814 217.351 168.276 216.999L206.188 207.859C207.586 207.522 208.545 206.314 208.63 204.95ZM159.388 205.02L164.224 215.046L207.446 205.266C208.14 205.108 208.576 204.418 208.419 203.723C208.312 203.249 207.948 202.876 207.477 202.757L189.538 198.227C189.468 198.21 189.411 198.161 189.384 198.095L187.876 194.524L159.388 205.02ZM170.413 153.152L167.547 146.363C165.365 141.193 160.299 137.833 154.688 137.833C148.722 137.833 143 140.197 138.772 144.406L136.994 146.177C149.339 155.696 160.469 158.01 170.413 153.152V153.152Z" fill="#417DB5"/>
<path fill-rule="evenodd" clip-rule="evenodd" d="M84.9866 117.887L28.2225 154.138C15.3108 162.384 10.5681 178.959 17.1638 192.786L21.2344 201.32C28.4514 216.45 46.5672 222.865 61.6973 215.648C62.5052 215.263 63.2958 214.842 64.0666 214.387L90.0344 199.048C94.8705 196.191 98.8191 192.049 101.441 187.081L101.756 186.483C104.473 181.336 104.558 175.198 101.985 169.977L95.6099 157.042C86.1473 164.097 81.038 168.953 80.282 171.611C79.6078 173.981 71.8922 178.863 57.1353 186.258C53.9347 187.862 50.0389 186.738 48.1844 183.676C46.6948 181.216 47.4811 178.015 49.9407 176.525C50.2219 176.355 50.5185 176.212 50.8267 176.097L78.4608 165.844" fill="#E9F4FF"/>
<path fill-rule="evenodd" clip-rule="evenodd" d="M16.3903 191.34C17.1491 193.465 20.444 200.116 21.7019 202.267C23.0254 204.53 24.4336 206.668 26.2548 208.793C28.0582 210.897 30.4846 212.977 34.1464 214.863C35.3716 215.494 36.6868 216.152 38.0922 216.836C37.147 208.86 36.0846 203.295 34.9052 200.142C33.949 197.586 32.9765 195.024 31.5664 193.009C28.0253 187.951 22.3019 182.837 14.3961 177.669C13.702 181.117 14.3668 185.674 16.3903 191.34Z" fill="#8C8C8C"/>
<path fill-rule="evenodd" clip-rule="evenodd" d="M81.3442 168.728L81.6478 172.673C85.2996 179.586 87.5449 183.759 88.3835 185.193C89.2658 186.701 91.0169 190.42 93.6369 196.348C96.5729 193.805 98.9 191.175 100.618 188.457C102.336 185.739 103.398 183.007 103.805 180.261C104.21 176.619 103.198 172.522 100.77 167.969C99.5586 165.698 97.788 161.904 95.4581 156.587C88.8539 160.084 84.2505 162.967 81.6478 165.237C79.045 167.507 78.9438 168.67 81.3442 168.728Z" fill="white"/>
<path d="M101.672 169.939C104.213 175.094 104.129 181.155 101.446 186.239L101.131 186.836C98.5286 191.767 94.6097 195.878 89.8099 198.713L63.7491 214.107C63.0122 214.542 62.2571 214.946 61.4858 215.317C46.4925 222.528 28.492 216.22 21.2805 201.227L17.3605 193.077C10.8068 179.452 15.3685 163.079 28.0238 154.805L84.2006 118.078C84.3058 118.01 84.3353 117.868 84.2665 117.763C84.1977 117.658 84.0567 117.628 83.9514 117.697L27.7746 154.424C14.9281 162.823 10.2975 179.443 16.9503 193.274L20.8702 201.424C28.1907 216.644 46.4633 223.048 61.6831 215.727C62.4661 215.351 63.2326 214.941 63.9807 214.499L90.0414 199.105C94.9138 196.227 98.892 192.054 101.533 187.049L101.849 186.451C104.6 181.239 104.686 175.024 102.08 169.737L95.7053 156.803C95.6511 156.693 95.5197 156.645 95.408 156.695C87.8601 160.08 83.2287 162.612 81.4886 164.316C80.6929 165.095 80.2516 166.079 80.0711 167.273C79.9585 168.018 79.9504 168.66 79.9963 169.811C80.0367 170.821 80.0336 171.131 79.9542 171.41C79.3078 173.682 71.5828 178.57 56.9245 185.916C53.83 187.467 50.0634 186.38 48.2703 183.419C46.8678 181.104 47.6082 178.09 49.9239 176.687C50.209 176.514 50.5111 176.371 50.8253 176.26L79.5992 166.059C79.7177 166.017 79.7797 165.887 79.7377 165.768C79.6957 165.65 79.5656 165.588 79.4471 165.63L50.6732 175.831C50.3298 175.952 49.9997 176.109 49.688 176.298C47.1572 177.83 46.3481 181.124 47.8809 183.655C49.7969 186.819 53.8218 187.98 57.1285 186.323C71.984 178.879 79.6901 174.002 80.3921 171.535C80.4912 171.186 80.4943 170.87 80.4513 169.792C80.4064 168.67 80.4143 168.049 80.5213 167.341C80.688 166.239 81.0888 165.345 81.8071 164.641C83.4792 163.004 88.0163 160.517 95.394 157.201L101.672 169.939Z" fill="#417DB5"/>
<path fill-rule="evenodd" clip-rule="evenodd" d="M103.24 120.892C97.9375 109.111 94.7505 101.284 93.6795 97.4121C90.2079 84.8607 87.7852 73.9126 74.8177 73.9126C61.8502 73.9126 51.338 84.425 51.338 97.3927C51.338 101.086 54.525 112.93 60.899 132.924C70.2996 132.887 77.905 132.418 83.7153 131.52C89.5255 130.621 96.0339 127.079 103.24 120.892Z" fill="#E9F4FF" stroke="#417DB5" stroke-width="0.842617" stroke-linecap="round" stroke-linejoin="round"/>
<path fill-rule="evenodd" clip-rule="evenodd" d="M103.198 120.856C97.8945 109.075 94.7075 101.249 93.6365 97.3764C90.165 84.8251 87.7422 73.877 74.7747 73.877C61.8073 73.877 51.295 84.3894 51.295 97.3571C51.295 101.051 54.482 112.895 60.856 132.889C70.2566 132.851 77.862 132.383 83.6723 131.484C89.4826 130.586 95.991 127.043 103.198 120.856Z" fill="#E9F4FF"/>
<path fill-rule="evenodd" clip-rule="evenodd" d="M103.198 120.856C97.8945 109.075 94.7075 101.249 93.6365 97.3764C90.1649 84.8251 87.7422 73.877 74.7747 73.877C61.8073 73.877 51.295 84.3894 51.295 97.3571C51.295 101.051 54.482 112.895 60.856 132.889C70.2566 132.851 77.862 132.383 83.6723 131.484C89.4826 130.586 95.991 127.043 103.198 120.856Z" stroke="#417DB5" stroke-width="0.842617" stroke-linecap="round" stroke-linejoin="round"/>
<path d="M103.406 120.763C98.1075 108.993 94.9232 101.173 93.8564 97.3158C93.7167 96.8108 93.0979 94.5567 92.9313 93.9556C90.8886 86.5843 89.4751 82.8204 87.1995 79.6578C84.3259 75.6641 80.395 73.6494 74.7752 73.6494C61.682 73.6494 51.0679 84.2638 51.0679 97.3572C51.0679 101.086 54.2551 112.931 60.6396 132.958C60.6698 133.053 60.758 133.116 60.8574 133.116C70.2684 133.079 77.8845 132.61 83.7076 131.709C89.566 130.803 96.1103 127.241 103.346 121.029C103.423 120.964 103.447 120.855 103.406 120.763ZM83.638 131.259C77.8749 132.151 70.3359 132.618 61.0226 132.66C54.693 112.796 51.5232 101.006 51.5232 97.3572C51.5232 84.5152 61.9335 74.1047 74.7752 74.1047C80.2485 74.1047 84.0419 76.0489 86.83 79.9237C89.0636 83.028 90.4641 86.7573 92.4926 94.0771C92.659 94.6776 93.2777 96.9316 93.4176 97.4372C94.4881 101.307 97.6545 109.089 102.92 120.795C95.7949 126.887 89.3654 130.374 83.638 131.259Z" fill="#417DB5"/>
<path d="M63.7926 108.162C63.7926 108.162 76.4705 113.14 95.7341 106.37C96.065 106.254 96.4283 106.046 96.824 105.746C95.828 103.754 95.2209 102.388 95.0029 101.649C94.115 98.6399 94.0329 96.7289 93.03 94.8194C92.3817 93.5852 92.1548 91.4792 91.5123 89.5077C91.1657 88.444 90.508 86.7746 89.5394 84.4996C88.5769 82.5891 87.9193 81.3244 87.5665 80.7056C87.0264 79.7578 87.0259 78.8328 86.3216 78.9353C82.5144 79.4894 78.4088 81.9588 74.0047 86.3434C63.7705 96.5326 63.7926 108.162 63.7926 108.162Z" fill="#417DB5"/>
<path fill-rule="evenodd" clip-rule="evenodd" d="M71.935 88.5976C72.9974 87.3835 73.5852 86.6232 74.515 85.7141C75.4447 84.8051 76.6396 83.7412 78.7643 82.2236C79.8772 85.1577 80.9901 88.3447 82.4066 92.6952C84.5312 99.2209 81.1671 100.25 77.0949 95.8822C74.3802 92.9704 72.7614 90.6434 71.935 88.5976ZM83.9727 88.2205C84.7296 88.2734 85.1421 91.5579 85.3733 92.1217C85.5022 92.436 85.352 92.7952 85.0377 92.9242C84.7506 93.0419 84.4208 92.9274 84.2684 92.657C83.3816 91.0828 82.9414 90.1379 82.9479 89.8223C82.9643 89.0244 83.2157 88.1675 83.9727 88.2205Z" fill="white"/>
<path d="M79.7178 165.237C89.9433 165.237 98.2327 156.948 98.2327 146.722C98.2327 136.497 89.9433 128.208 79.7178 128.208C69.4923 128.208 61.2029 136.497 61.2029 146.722C61.2029 156.948 69.4923 165.237 79.7178 165.237Z" fill="#417DB5"/>
<path d="M64.005 106.607C62.4045 99.5041 64.7553 92.7517 71.078 86.3286C77.402 79.9042 81.87 76.7917 84.4051 76.9867C84.5304 76.9963 84.3699 77.0368 84.3796 76.9115C84.3892 76.7861 84.3532 76.7694 84.2278 76.7597C84.1553 76.7541 84.2937 76.524 84.2186 76.5232C81.4712 76.4936 77.0065 79.657 70.7535 86.0092C64.3283 92.5365 61.9239 99.4426 63.5609 106.707C63.5885 106.829 63.7104 106.906 63.833 106.879C63.9557 106.851 64.0327 106.729 64.005 106.607Z" fill="#417DB5"/>
<path fill-rule="evenodd" clip-rule="evenodd" d="M67.7287 161.14L74.558 143.676L91.6861 138.711C92.3301 138.525 93.0035 138.895 93.1902 139.54C93.3026 139.927 93.2149 140.345 92.9563 140.655L83.2084 152.337L82.4066 165.237L67.7287 161.14Z" fill="white"/>
<path fill-rule="evenodd" clip-rule="evenodd" d="M74.5197 143.687C72.1899 146.232 70.7085 147.905 70.0757 148.706C66.753 152.911 66.8754 154.501 68.4493 155.524C71.4845 157.497 74.6285 161.454 76.7532 157.811C78.1696 155.383 77.4251 150.675 74.5197 143.687Z" fill="#E9F4FF"/>
<path d="M74.39 143.522C74.5024 143.399 74.7042 143.435 74.7681 143.589C77.6996 150.64 78.453 155.404 76.988 157.915C76.1524 159.348 75.0886 159.779 73.7847 159.364C72.8429 159.064 72.1297 158.577 70.2358 157.088C69.7823 156.731 69.5169 156.526 69.2317 156.314C68.9171 156.079 68.6334 155.88 68.3634 155.704C66.4555 154.464 66.8037 152.518 69.9352 148.554C70.5727 147.747 72.0562 146.072 74.39 143.522ZM76.5947 157.686C77.9407 155.379 77.25 150.837 74.4842 144.094C72.2971 146.487 70.8986 148.069 70.2925 148.836C67.3045 152.618 67.0073 154.28 68.6115 155.322C68.8903 155.504 69.1817 155.709 69.5035 155.948C69.7928 156.164 70.0607 156.371 70.5172 156.73C72.3596 158.178 73.0558 158.654 73.9228 158.93C75.0203 159.279 75.8649 158.937 76.5947 157.686ZM83.7372 151.752C83.8089 151.649 83.9507 151.623 84.054 151.695C84.1573 151.767 84.1828 151.909 84.1111 152.012C83.2293 153.282 82.4179 153.931 81.6477 153.931C81.522 153.931 81.4201 153.829 81.4201 153.703C81.4201 153.577 81.522 153.476 81.6477 153.476C82.2265 153.476 82.9327 152.911 83.7372 151.752Z" fill="#417DB5"/>
<path d="M62.9812 110.907C64.2384 110.907 65.2576 109.888 65.2576 108.63C65.2576 107.373 64.2384 106.354 62.9812 106.354C61.724 106.354 60.7048 107.373 60.7048 108.63C60.7048 109.888 61.724 110.907 62.9812 110.907Z" fill="white"/>
<path d="M62.8722 111.134C64.2551 111.134 65.3762 110.013 65.3762 108.63C65.3762 107.247 64.2551 106.126 62.8722 106.126C61.4892 106.126 60.3681 107.247 60.3681 108.63C60.3681 110.013 61.4892 111.134 62.8722 111.134ZM62.8722 110.679C61.7407 110.679 60.8234 109.762 60.8234 108.63C60.8234 107.499 61.7407 106.581 62.8722 106.581C64.0037 106.581 64.921 107.499 64.921 108.63C64.921 109.762 64.0037 110.679 62.8722 110.679Z" fill="#417DB5"/>
<path d="M62.8723 109.92C63.6623 109.92 64.314 109.35 64.314 108.63C64.314 107.91 63.6623 107.34 62.8723 107.34C62.0823 107.34 61.4305 107.91 61.4305 108.63C61.4305 109.35 62.0823 109.92 62.8723 109.92ZM62.8723 109.465C62.3212 109.465 61.8858 109.084 61.8858 108.63C61.8858 108.176 62.3212 107.795 62.8723 107.795C63.4233 107.795 63.8587 108.176 63.8587 108.63C63.8587 109.084 63.4233 109.465 62.8723 109.465Z" fill="#417DB5"/>
<path fill-rule="evenodd" clip-rule="evenodd" d="M82.4066 164.175L81.539 172.674L68.6393 180.262L58.4283 185.573L53.4202 178.896C57.6076 178.653 59.9852 177.996 60.553 176.923C62.2335 173.748 64.6111 168.538 67.6858 161.292L82.4066 164.175Z" fill="white"/>
<path d="M82.4502 163.799C82.5656 163.822 82.6448 163.929 82.6329 164.046L81.7653 172.545C81.7579 172.617 81.7167 172.681 81.6542 172.718L68.7441 180.311L58.5331 185.623C58.4343 185.674 58.3128 185.647 58.246 185.558L53.2378 178.88C53.1289 178.735 53.2255 178.527 53.4068 178.516C57.5095 178.279 59.8379 177.635 60.3515 176.664C62.0284 173.496 64.4037 168.291 67.476 161.05C67.518 160.951 67.6237 160.895 67.7293 160.916L82.4502 163.799ZM67.8229 161.398C64.7809 168.561 62.4251 173.72 60.7539 176.877C60.1528 178.013 57.8653 178.678 53.8553 178.945L58.4943 185.13L68.5236 179.913L81.324 172.384L82.1588 164.206L67.8229 161.398ZM81.4234 172.325L81.3123 172.498L81.324 172.384L81.4234 172.325Z" fill="#417DB5"/>
<path fill-rule="evenodd" clip-rule="evenodd" d="M27.0135 102.104C25.5048 102.104 24.2818 100.881 24.2818 99.3723C24.2818 97.8637 25.5048 96.6406 27.0135 96.6406C28.5222 96.6406 29.7452 97.8637 29.7452 99.3723C29.7452 100.881 28.5222 102.104 27.0135 102.104ZM53.7236 108.933L54.4394 111.665C54.2677 111.723 54.0977 111.786 53.9296 111.854C49.1307 113.797 46.815 119.262 48.7575 124.061L50.1901 127.6L47.4584 129.118L45.8423 123.857C44.0992 118.182 46.8291 112.093 52.2258 109.62L53.7236 108.933Z" fill="white"/>
<path d="M33.3093 112.154C33.3162 112.107 33.3085 112.059 33.2871 112.017L28.1272 101.849C28.0703 101.737 27.9333 101.692 27.8212 101.749C27.7091 101.806 27.6643 101.943 27.7212 102.055L32.8483 112.159L32.2519 116.185C32.2366 116.287 32.2932 116.388 32.3892 116.428L36.5514 118.17L43.3552 130.814C43.4148 130.924 43.5528 130.966 43.6635 130.906C43.7743 130.847 43.8157 130.708 43.7561 130.598L36.9141 117.883C36.8894 117.837 36.8496 117.801 36.8015 117.781L32.7282 116.076L33.3093 112.154Z" fill="#417DB5"/>
<path d="M26.9048 102.332C25.2704 102.332 23.9454 101.007 23.9454 99.3724C23.9454 97.738 25.2704 96.4131 26.9048 96.4131C28.5392 96.4131 29.8641 97.738 29.8641 99.3724C29.8641 101.007 28.5392 102.332 26.9048 102.332ZM26.9048 101.877C28.2877 101.877 29.4089 100.755 29.4089 99.3724C29.4089 97.9895 28.2877 96.8684 26.9048 96.8684C25.5218 96.8684 24.4007 97.9895 24.4007 99.3724C24.4007 100.755 25.5218 101.877 26.9048 101.877ZM53.52 108.726C53.6486 108.668 53.7992 108.739 53.835 108.876L54.5509 111.607C54.5812 111.723 54.5169 111.842 54.4037 111.881C54.2361 111.937 54.0703 111.999 53.9063 112.065C49.2239 113.961 46.9645 119.293 48.8597 123.975L50.2924 127.515C50.3355 127.621 50.2924 127.743 50.1919 127.799L47.4602 129.317C47.3337 129.387 47.1745 129.323 47.132 129.185L45.516 123.923C43.7393 118.139 46.5217 111.934 52.0223 109.413L53.52 108.726ZM52.2119 109.827C46.919 112.253 44.2416 118.224 45.9512 123.79L47.4847 128.782L49.7948 127.499L48.4377 124.146C46.4481 119.231 48.82 113.633 53.7355 111.643C53.842 111.6 53.9493 111.559 54.0573 111.52L53.4633 109.253L52.2119 109.827Z" fill="#417DB5"/>
<path d="M32.6838 191.441C36.6591 196.86 39.1915 205.52 40.2917 217.422L39.8384 217.464C38.729 205.462 36.1603 196.799 32.1435 191.477C28.8601 187.127 25.3346 183.543 21.7047 180.655C19.0405 178.534 16.5476 176.963 14.364 175.867L14.5681 175.46C16.7791 176.569 19.2986 178.158 21.9882 180.298C25.6111 183.182 29.1292 186.749 32.408 191.072L47.6965 182.793C47.807 182.733 47.9452 182.774 48.0051 182.885C48.0649 182.995 48.0239 183.133 47.9133 183.193L32.6838 191.441ZM54.4014 187.136C54.3412 187.026 54.3818 186.888 54.4922 186.828C54.6025 186.767 54.7408 186.808 54.8011 186.918L68.3408 211.719C68.401 211.829 68.3604 211.967 68.25 212.028C68.1397 212.088 68.0014 212.047 67.9412 211.937L54.4014 187.136ZM49.4336 176.671C49.489 176.783 49.4424 176.92 49.3296 176.975C49.2167 177.031 49.0803 176.984 49.0249 176.871L35.6114 149.554C35.556 149.441 35.6025 149.305 35.7154 149.249C35.8282 149.194 35.9647 149.241 36.0201 149.353L49.4336 176.671Z" fill="#417DB5"/>
<path d="M61.0082 133.063L67.7287 146.722" stroke="#417DB5" stroke-width="0.842617" stroke-linecap="round" stroke-linejoin="round"/>
<path d="M81.6148 172.598L93.6369 196.243" stroke="#417DB5" stroke-width="0.842617" stroke-linecap="round" stroke-linejoin="round"/>
<path d="M271.44 64.3999C271.561 64.3659 271.687 64.4363 271.721 64.5573C271.755 64.6784 271.684 64.8041 271.563 64.8382L252.246 70.2796C247.527 71.609 244.779 76.5127 246.108 81.2322C246.418 82.3323 246.937 83.3621 247.637 84.2653L250.47 87.9183C253.216 91.4598 252.571 96.5569 249.03 99.303C247.44 100.536 245.448 101.134 243.441 100.981L233.701 100.24C228.756 99.863 223.928 101.867 220.703 105.634L215.978 111.153C215.896 111.249 215.752 111.26 215.657 111.178C215.561 111.097 215.55 110.953 215.632 110.857L220.357 105.338C223.676 101.461 228.646 99.398 233.735 99.7856L243.476 100.527C245.37 100.672 247.25 100.107 248.751 98.9432C252.094 96.3512 252.702 91.5401 250.11 88.1973L247.278 84.5442C246.541 83.5948 245.995 82.5121 245.67 81.3557C244.272 76.3941 247.161 71.239 252.123 69.8413L271.44 64.3999ZM237.962 130.332V126.386C237.962 126.218 238.098 126.083 238.266 126.083C238.433 126.083 238.569 126.218 238.569 126.386V130.332H242.515C242.683 130.332 242.819 130.468 242.819 130.635C242.819 130.803 242.683 130.939 242.515 130.939H238.569V134.885C238.569 135.052 238.433 135.188 238.266 135.188C238.098 135.188 237.962 135.052 237.962 134.885V130.939H234.016C233.849 130.939 233.713 130.803 233.713 130.635C233.713 130.468 233.849 130.332 234.016 130.332H237.962ZM95.9133 33.2044V29.2586C95.9133 29.091 96.0492 28.9551 96.2169 28.9551C96.3845 28.9551 96.5204 29.091 96.5204 29.2586V33.2044H100.466C100.634 33.2044 100.77 33.3403 100.77 33.5079C100.77 33.6756 100.634 33.8115 100.466 33.8115H96.5204V37.7573C96.5204 37.9249 96.3845 38.0608 96.2169 38.0608C96.0492 38.0608 95.9133 37.9249 95.9133 37.7573V33.8115H91.9675C91.7999 33.8115 91.664 33.6756 91.664 33.5079C91.664 33.3403 91.7999 33.2044 91.9675 33.2044H95.9133ZM224.607 50.8088V46.8629C224.607 46.6953 224.743 46.5594 224.911 46.5594C225.078 46.5594 225.214 46.6953 225.214 46.8629V50.8088H229.16C229.328 50.8088 229.464 50.9446 229.464 51.1123C229.464 51.2799 229.328 51.4158 229.16 51.4158H225.214V55.3616C225.214 55.5292 225.078 55.6651 224.911 55.6651C224.743 55.6651 224.607 55.5292 224.607 55.3616V51.4158H220.661C220.494 51.4158 220.358 51.2799 220.358 51.1123C220.358 50.9446 220.494 50.8088 220.661 50.8088H224.607ZM3.33876 130.332V127.297C3.33876 127.129 3.47465 126.993 3.64228 126.993C3.80991 126.993 3.9458 127.129 3.9458 127.297V130.332H6.98103C7.14866 130.332 7.28456 130.468 7.28456 130.635C7.28456 130.803 7.14866 130.939 6.98103 130.939H3.9458V133.974C3.9458 134.142 3.80991 134.278 3.64228 134.278C3.47465 134.278 3.33876 134.142 3.33876 133.974V130.939H0.303523C0.135892 130.939 0 130.803 0 130.635C0 130.468 0.135892 130.332 0.303523 130.332H3.33876ZM189.55 86.321V83.4375C189.55 83.2699 189.686 83.134 189.854 83.134C190.021 83.134 190.157 83.2699 190.157 83.4375V86.321H193.041C193.208 86.321 193.344 86.4569 193.344 86.6245C193.344 86.7921 193.208 86.928 193.041 86.928H190.157V89.8115C190.157 89.9791 190.021 90.115 189.854 90.115C189.686 90.115 189.55 89.9791 189.55 89.8115V86.928H186.667C186.499 86.928 186.363 86.7921 186.363 86.6245C186.363 86.4569 186.499 86.321 186.667 86.321H189.55ZM112.455 77.367V74.4836C112.455 74.3159 112.591 74.18 112.759 74.18C112.927 74.18 113.062 74.3159 113.062 74.4836V77.367H115.946C116.113 77.367 116.249 77.5029 116.249 77.6706C116.249 77.8382 116.113 77.9741 115.946 77.9741H113.062V80.8576C113.062 81.0252 112.927 81.1611 112.759 81.1611C112.591 81.1611 112.455 81.0252 112.455 80.8576V77.9741H109.572C109.404 77.9741 109.268 77.8382 109.268 77.6706C109.268 77.5029 109.404 77.367 109.572 77.367H112.455Z" fill="#417DB5"/>
<path fill-rule="evenodd" clip-rule="evenodd" d="M82.6092 143.53C81.1349 142.473 79.9286 142.209 78.9904 142.737C77.5831 143.53 75.7737 145.115 76.779 147.097C77.7842 149.078 78.5883 150.664 79.5936 150.664C80.5988 150.664 82.4082 150.862 83.4134 148.682C84.0835 147.229 83.8155 145.512 82.6092 143.53Z" fill="#E9F4FF"/>
<path fill-rule="evenodd" clip-rule="evenodd" d="M82.5269 144.441C82.4229 145.516 82.0649 146.208 81.4531 146.519C80.9181 146.79 80.0811 146.948 78.9422 146.993C78.4397 147.013 78.0163 146.621 77.9966 146.119C77.9898 145.947 78.032 145.776 78.1183 145.627C78.7445 144.545 79.2996 143.881 79.7837 143.635C80.2918 143.377 80.9545 143.318 81.7719 143.455C82.2433 143.535 82.573 143.965 82.5269 144.441Z" fill="white"/>
<path d="M82.1494 144.801C81.9966 145.041 81.6934 145.205 81.3443 145.205C80.8414 145.205 80.4338 144.865 80.4338 144.446C80.4338 144.037 80.8222 143.703 81.3085 143.688C80.6824 143.62 80.1729 143.69 79.7779 143.89C79.3437 144.11 78.8123 144.746 78.2066 145.793C78.1419 145.905 78.1102 146.033 78.1153 146.162C78.1301 146.538 78.4476 146.832 78.8245 146.817C79.9336 146.774 80.7414 146.621 81.2413 146.368C81.7118 146.129 82.018 145.613 82.1494 144.801ZM81.7215 143.755C81.7973 143.779 81.8667 143.816 81.9277 143.863C81.8655 143.82 81.7962 143.783 81.7215 143.755ZM82.6447 144.515C82.5339 145.66 82.1397 146.422 81.4473 146.774C80.8773 147.063 80.0111 147.226 78.8423 147.272C78.2142 147.297 77.685 146.808 77.6604 146.179C77.6519 145.964 77.7047 145.751 77.8125 145.565C78.4591 144.447 79.038 143.755 79.572 143.484C80.1285 143.202 80.8393 143.137 81.701 143.283C82.2902 143.382 82.7023 143.92 82.6447 144.515Z" fill="#417DB5"/>
<path fill-rule="evenodd" clip-rule="evenodd" d="M92.1192 138.606C91.4089 138.429 90.6598 138.551 89.8716 138.972L89.8716 138.972C89.7238 139.052 89.6681 139.235 89.7472 139.383C89.7639 139.414 89.7859 139.442 89.8123 139.466C90.1131 139.736 90.4774 139.889 90.9051 139.925C91.4716 139.974 92.1292 139.974 92.878 139.925C93.1815 139.248 92.9286 138.809 92.1192 138.606Z" fill="#E9F4FF"/>
<path d="M92.3263 138.353C91.558 138.161 90.7517 138.292 89.9162 138.739C89.6575 138.878 89.56 139.199 89.6984 139.458C89.7276 139.513 89.7662 139.562 89.8123 139.603C90.1506 139.906 90.5615 140.079 91.0376 140.12C91.6164 140.169 92.2852 140.169 93.0446 140.12C93.1288 140.115 93.2031 140.063 93.2377 139.986C93.6025 139.172 93.2664 138.588 92.3263 138.353ZM91.0764 139.666C90.6972 139.634 90.3796 139.5 90.1161 139.264C90.1095 139.258 90.104 139.251 90.0999 139.243C90.0801 139.206 90.094 139.16 90.131 139.141C90.8717 138.744 91.5638 138.632 92.2159 138.795C92.8402 138.951 93.0339 139.213 92.8725 139.674C92.1935 139.713 91.5947 139.71 91.0764 139.666Z" fill="#417DB5"/>
<path fill-rule="evenodd" clip-rule="evenodd" d="M280.759 50.8086L277.724 51.5674L285.464 59.1555L286.374 56.1202" fill="white"/>
<path d="M164.358 205.302C165.615 205.302 166.634 204.283 166.634 203.026C166.634 201.769 165.615 200.75 164.358 200.75C163.101 200.75 162.081 201.769 162.081 203.026C162.081 204.283 163.101 205.302 164.358 205.302Z" fill="white"/>
<path d="M164.249 205.53C165.632 205.53 166.753 204.409 166.753 203.026C166.753 201.643 165.632 200.522 164.249 200.522C162.866 200.522 161.745 201.643 161.745 203.026C161.745 204.409 162.866 205.53 164.249 205.53ZM164.249 205.075C163.117 205.075 162.2 204.158 162.2 203.026C162.2 201.895 163.117 200.977 164.249 200.977C165.38 200.977 166.298 201.895 166.298 203.026C166.298 204.158 165.38 205.075 164.249 205.075Z" fill="#417DB5"/>
<path d="M198.656 169.183C199.913 169.183 200.932 168.164 200.932 166.906C200.932 165.649 199.913 164.63 198.656 164.63C197.398 164.63 196.379 165.649 196.379 166.906C196.379 168.164 197.398 169.183 198.656 169.183Z" fill="white"/>
<path d="M198.656 169.411C200.039 169.411 201.16 168.29 201.16 166.907C201.16 165.524 200.039 164.403 198.656 164.403C197.273 164.403 196.152 165.524 196.152 166.907C196.152 168.29 197.273 169.411 198.656 169.411ZM198.656 168.956C197.524 168.956 196.607 168.038 196.607 166.907C196.607 165.775 197.524 164.858 198.656 164.858C199.787 164.858 200.705 165.775 200.705 166.907C200.705 168.038 199.787 168.956 198.656 168.956Z" fill="#417DB5"/>
<path d="M164.249 204.315C165.039 204.315 165.691 203.745 165.691 203.025C165.691 202.306 165.039 201.735 164.249 201.735C163.459 201.735 162.808 202.306 162.808 203.025C162.808 203.745 163.459 204.315 164.249 204.315ZM164.249 203.86C163.698 203.86 163.263 203.479 163.263 203.025C163.263 202.572 163.698 202.191 164.249 202.191C164.8 202.191 165.236 202.572 165.236 203.025C165.236 203.479 164.8 203.86 164.249 203.86Z" fill="#417DB5"/>
<path d="M198.656 168.196C199.446 168.196 200.098 167.626 200.098 166.906C200.098 166.186 199.446 165.616 198.656 165.616C197.866 165.616 197.214 166.186 197.214 166.906C197.214 167.626 197.866 168.196 198.656 168.196ZM198.656 167.741C198.105 167.741 197.669 167.36 197.669 166.906C197.669 166.452 198.105 166.071 198.656 166.071C199.207 166.071 199.642 166.452 199.642 166.906C199.642 167.36 199.207 167.741 198.656 167.741Z" fill="#417DB5"/>
<path d="M64.9952 108.798C67.3793 110.975 72.586 111.945 80.6341 111.741C88.666 111.538 94.3696 110.316 97.7519 108.061C97.8565 107.991 97.8848 107.85 97.8151 107.745C97.7453 107.64 97.604 107.612 97.4994 107.682C94.2042 109.879 88.5762 111.085 80.6226 111.286C72.6852 111.487 67.5721 110.534 65.3022 108.462C65.2093 108.377 65.0653 108.384 64.9806 108.477C64.8958 108.569 64.9023 108.713 64.9952 108.798Z" fill="#417DB5"/>
<path fill-rule="evenodd" clip-rule="evenodd" d="M327.281 6.22132C319.743 8.8149 312.059 13.4157 304.23 20.0237C296.155 26.8398 287.444 36.1972 278.098 48.0959L288.601 58.2387C300.237 48.3539 309.284 39.322 315.744 31.1428C322.009 23.2103 326.373 15.4056 328.836 7.72859C328.976 7.29281 328.856 6.81547 328.527 6.49756C328.196 6.17872 327.715 6.07199 327.281 6.22132Z" fill="#E9F4FF"/>
<path fill-rule="evenodd" clip-rule="evenodd" d="M315.361 11.9576L323.404 19.3939C327.754 11.5023 329.474 7.15183 328.564 6.34244C327.653 5.53304 323.252 7.40477 315.361 11.9576Z" fill="#8C8C8C"/>
<path fill-rule="evenodd" clip-rule="evenodd" d="M284.177 58.0613L279.393 63.8601L279.849 59.4591L276.055 60.3696L277.572 57.0309H273.171L278.686 52.6773L277.274 51.2935L280.704 50.436L280.814 50.8777L278.174 51.5379L285.354 58.5774L286.156 55.9031L286.592 56.0339L285.573 59.4302L284.177 58.0613Z" fill="#417DB5"/>
<path d="M304.079 19.7473C295.99 26.5744 287.269 35.9428 277.915 47.8529C277.842 47.9447 277.851 48.0761 277.935 48.1572L288.439 58.3C288.523 58.3813 288.655 58.3855 288.744 58.3097C300.39 48.416 309.448 39.3737 315.918 31.1815C322.2 23.2287 326.577 15.4003 329.048 7.6957C329.215 7.17734 329.072 6.60953 328.68 6.23138C328.289 5.85308 327.718 5.72646 327.203 5.90363C319.636 8.50702 311.928 13.1222 304.079 19.7473ZM278.4 47.9725C287.688 36.162 296.347 26.8694 304.372 20.0952C312.181 13.5044 319.841 8.91793 327.351 6.33416C327.704 6.21267 328.095 6.29949 328.364 6.55888C328.631 6.81655 328.728 7.20343 328.615 7.55662C326.161 15.206 321.81 22.9871 315.561 30.8993C309.141 39.0285 300.156 48.0057 288.606 57.8292L278.4 47.9725Z" fill="#417DB5"/>
<path fill-rule="evenodd" clip-rule="evenodd" d="M293.717 31.9902L292.363 34.4007L278.253 48.0037L267.693 48.6318L266.797 47.7667L293.717 31.9902ZM304.369 42.1904L289.065 69.3815L288.185 68.501L288.628 57.9315L301.983 43.5862L304.369 42.1904Z" fill="white"/>
<path d="M293.454 31.9022C293.654 31.7848 293.881 32.0076 293.767 32.2101L292.413 34.6205L292.373 34.6729L278.263 48.2759C278.224 48.3136 278.172 48.336 278.118 48.3393L267.558 48.9674C267.495 48.9711 267.432 48.9481 267.386 48.9039L266.491 48.0389C266.382 47.9342 266.404 47.7549 266.534 47.6787L293.454 31.9022ZM267.023 47.9198L267.631 48.5069L278.007 47.8898L292.033 34.3684L292.959 32.7201L267.023 47.9198ZM292.057 34.3451L292.016 34.3975L292.033 34.3684L292.057 34.3451ZM304.106 42.1022C304.307 41.985 304.534 42.208 304.42 42.4104L289.115 69.6015C289.041 69.7328 288.863 69.7574 288.756 69.6508L287.876 68.7703C287.831 68.7253 287.806 68.6634 287.809 68.5998L288.253 58.0303C288.255 57.9761 288.277 57.9244 288.314 57.8847L301.668 43.5395L301.72 43.4981L304.106 42.1022ZM301.979 43.8742L288.704 58.1334L288.268 68.519L288.866 69.1167L303.611 42.9197L301.979 43.8742Z" fill="#417DB5"/>
<path d="M310.808 29.5627C313.322 29.5627 315.36 27.5243 315.36 25.0099C315.36 22.4954 313.322 20.457 310.808 20.457C308.293 20.457 306.255 22.4954 306.255 25.0099C306.255 27.5243 308.293 29.5627 310.808 29.5627Z" fill="white"/>
<path d="M310.869 29.6835C313.509 29.6835 315.649 27.5432 315.649 24.903C315.649 22.2629 313.509 20.1226 310.869 20.1226C308.229 20.1226 306.089 22.2629 306.089 24.903C306.089 27.5432 308.229 29.6835 310.869 29.6835ZM310.869 29.2283C308.48 29.2283 306.544 27.2918 306.544 24.903C306.544 22.5143 308.48 20.5778 310.869 20.5778C313.258 20.5778 315.194 22.5143 315.194 24.903C315.194 27.2918 313.258 29.2283 310.869 29.2283Z" fill="#417DB5"/>
<path d="M310.808 27.3615C309.509 27.3615 308.456 26.3083 308.456 25.0092C308.456 23.71 309.509 22.6569 310.808 22.6569C312.107 22.6569 313.16 23.71 313.16 25.0092C313.16 26.3083 312.107 27.3615 310.808 27.3615ZM310.808 26.9062C311.856 26.9062 312.705 26.0569 312.705 25.0092C312.705 23.9615 311.856 23.1121 310.808 23.1121C309.76 23.1121 308.911 23.9615 308.911 25.0092C308.911 26.0569 309.76 26.9062 310.808 26.9062ZM315.205 11.9722L315.516 11.6396L323.629 19.2277L323.318 19.5602L315.205 11.9722Z" fill="#417DB5"/>
<path d="M156.193 108.438C149.918 112.388 145.595 116.152 143.225 119.735C140.857 123.315 138.724 129.358 136.819 137.87L137.263 137.97C139.158 129.507 141.274 123.51 143.605 119.986C145.933 116.466 150.21 112.742 156.436 108.823L156.193 108.438Z" fill="#417DB5"/>
<path fill-rule="evenodd" clip-rule="evenodd" d="M68.2598 159.94C70.7065 160.81 72.9702 161.471 75.0506 161.924C77.0865 162.366 79.4785 162.748 82.2266 163.07C82.8095 163.139 83.2267 163.667 83.1584 164.25C83.1531 164.295 83.145 164.339 83.134 164.383L83.1043 164.502C82.9538 165.106 82.3713 165.498 81.7554 165.411C79.2003 165.047 76.8136 164.644 74.5954 164.2C72.3453 163.75 70.0739 162.973 67.7814 161.869C67.2819 161.628 67.0201 161.07 67.1546 160.532C67.268 160.079 67.7277 159.803 68.1814 159.916C68.2079 159.923 68.234 159.931 68.2598 159.94Z" fill="white"/>
<path d="M77.2536 162.778C76.476 162.641 75.7394 162.497 75.0435 162.346C74.1957 162.161 73.3124 161.923 72.3935 161.632L72.0656 163.053C72.9842 163.327 73.8871 163.553 74.7743 163.731C75.4787 163.872 76.2003 164.008 76.939 164.141L77.2536 162.778ZM77.7029 162.856L77.3879 164.221C78.8307 164.475 80.3378 164.713 81.9091 164.937C82.294 164.992 82.6581 164.747 82.7522 164.369L82.7819 164.25C82.7881 164.225 82.7928 164.199 82.7958 164.174C82.8348 163.841 82.5964 163.539 82.2632 163.5C80.6168 163.307 79.0967 163.092 77.7029 162.856ZM71.9588 161.491C70.7753 161.098 69.5342 160.619 68.2352 160.053C68.2067 160.041 68.1771 160.031 68.1469 160.023C67.8466 159.949 67.5424 160.131 67.4675 160.432L67.4197 160.623C67.33 160.983 67.5136 161.355 67.8539 161.503C69.1402 162.061 70.3987 162.533 71.6292 162.919L71.9588 161.491ZM68.417 159.636C70.8708 160.705 73.1119 161.46 75.1402 161.901C77.1761 162.343 79.5681 162.726 82.3162 163.048C82.8991 163.116 83.3163 163.644 83.248 164.227C83.2427 164.272 83.2346 164.316 83.2236 164.36L83.1939 164.479C83.0434 165.083 82.4609 165.475 81.845 165.388C79.2899 165.024 76.9032 164.621 74.685 164.177C72.4431 163.729 70.1056 162.977 67.6726 161.921C67.1282 161.684 66.8344 161.089 66.9779 160.513L67.0257 160.322C67.1615 159.777 67.7128 159.446 68.2571 159.582C68.3118 159.595 68.3653 159.614 68.417 159.636Z" fill="#417DB5"/>
<path fill-rule="evenodd" clip-rule="evenodd" d="M41.2793 135.036L43.404 134.126L45.5286 138.527L43.404 139.893L41.2793 135.036ZM48.4121 136.706C47.8453 136.706 47.2754 136.612 46.8945 136.251C46.4868 135.863 46.2874 135.188 46.2874 134.581C46.2874 134.096 46.4686 133.421 46.7427 133.064C47.131 132.557 47.7242 132.457 48.4121 132.457C49.0245 132.457 49.542 132.497 49.9297 132.912C50.2849 133.292 50.5368 134.02 50.5368 134.581C50.5368 135.282 50.3009 136.015 49.7779 136.402C49.4249 136.664 48.885 136.706 48.4121 136.706Z" fill="#E9F4FF"/>
<path d="M41.1305 134.918L43.666 133.831L45.9729 138.61L43.4541 140.229L41.1305 134.918ZM43.6572 139.557L45.3877 138.445L43.4453 134.421L41.7315 135.155L43.6572 139.557ZM48.5638 136.934C47.8372 136.934 47.2807 136.787 46.8894 136.416C46.4558 136.004 46.2115 135.293 46.2115 134.581C46.2115 134.024 46.4185 133.311 46.7137 132.925C47.1121 132.405 47.6758 132.229 48.5638 132.229C49.4095 132.229 49.8562 132.338 50.2477 132.756C50.6368 133.173 50.9161 133.952 50.9161 134.581C50.9161 135.412 50.6186 136.176 50.0651 136.585C49.7111 136.847 49.236 136.934 48.5638 136.934ZM48.5638 136.478C49.1444 136.478 49.5419 136.406 49.7942 136.219C50.2166 135.907 50.4608 135.28 50.4608 134.581C50.4608 134.063 50.2216 133.395 49.9151 133.067C49.6346 132.767 49.2933 132.684 48.5638 132.684C47.8033 132.684 47.3674 132.821 47.0751 133.202C46.8456 133.502 46.6668 134.118 46.6668 134.581C46.6668 135.178 46.8701 135.77 47.2029 136.086C47.4916 136.36 47.9427 136.478 48.5638 136.478Z" fill="#417DB5"/>
<path d="M160.26 71.1445H133.854C133.351 71.1445 132.943 71.5522 132.943 72.0551C132.943 72.558 133.351 72.9657 133.854 72.9657H160.26C160.763 72.9657 161.171 72.558 161.171 72.0551C161.171 71.5522 160.763 71.1445 160.26 71.1445Z" fill="white"/>
<path d="M133.854 71.1445H160.26C160.763 71.1445 161.171 71.5522 161.171 72.0551C161.171 72.558 160.763 72.9657 160.26 72.9657H133.854C133.351 72.9657 132.943 72.558 132.943 72.0551C132.943 71.5522 133.351 71.1445 133.854 71.1445ZM133.854 71.5998C133.602 71.5998 133.398 71.8037 133.398 72.0551C133.398 72.3065 133.602 72.5104 133.854 72.5104H160.26C160.512 72.5104 160.715 72.3065 160.715 72.0551C160.715 71.8037 160.512 71.5998 160.26 71.5998H133.854Z" fill="#417DB5"/>
<path d="M94.1691 195.813L82.1808 172.285C82.0095 171.949 81.5983 171.815 81.2622 171.986C80.9262 172.158 80.7926 172.569 80.9638 172.905L92.9521 196.433C93.1233 196.769 93.5346 196.903 93.8706 196.732C94.2067 196.56 94.3403 196.149 94.1691 195.813Z" fill="white" stroke="#417DB5" stroke-width="0.842617"/>
<path fill-rule="evenodd" clip-rule="evenodd" d="M86.8432 135.282C85.9785 136.015 81.9257 132.903 81.059 132.536C80.593 132.339 80.3751 131.801 80.5722 131.336C80.7529 130.908 81.2244 130.684 81.67 130.812C84.3325 131.581 85.8335 132.138 86.1728 132.485C87.033 133.362 87.7079 134.549 86.8432 135.282Z" fill="white"/>
<path fill-rule="evenodd" clip-rule="evenodd" d="M107.243 155.972L116.308 150.23C116.45 150.14 116.638 150.182 116.727 150.324C116.729 150.328 116.732 150.331 116.734 150.335L120.202 156.336C120.283 156.477 120.24 156.656 120.104 156.743L111.2 162.488C111.06 162.579 110.872 162.538 110.781 162.397C110.779 162.395 110.778 162.392 110.776 162.39L107.146 156.386C107.06 156.244 107.104 156.061 107.243 155.972Z" fill="white"/>
<path d="M106.817 156.064L116.34 150.113C116.483 150.024 116.67 150.067 116.759 150.21L120.619 156.387C120.708 156.529 120.664 156.717 120.522 156.806L110.998 162.757C110.856 162.846 110.669 162.802 110.58 162.66L106.72 156.482C106.631 156.34 106.674 156.153 106.817 156.064ZM107.186 156.37L110.886 162.29L120.152 156.5L116.453 150.58L107.186 156.37Z" fill="#417DB5"/>
<path d="M109.11 156.157L115.288 152.297C115.43 152.208 115.618 152.251 115.706 152.393L118.28 156.512C118.369 156.654 118.325 156.841 118.183 156.93L112.006 160.79C111.863 160.879 111.676 160.836 111.587 160.694L109.014 156.575C108.925 156.433 108.968 156.246 109.11 156.157ZM111.893 160.324L117.813 156.624L115.401 152.763L109.48 156.463L111.893 160.324Z" fill="#417DB5"/>
</svg>
