<svg width="169" height="30" viewBox="0 0 169 30" fill="none" xmlns="http://www.w3.org/2000/svg">
<g clip-path="url(#clip0_2409_4731)">
<g filter="url(#filter0_d_2409_4731)">
<ellipse rx="9.0043" ry="8.50001" transform="matrix(1.0044 -0.00509659 0.0374036 0.994431 16.5337 15.012)" fill="#417DB5"/>
</g>
<g filter="url(#filter1_i_2409_4731)">
<path d="M28.4269 18.291C28.297 18.6379 27.9643 19.0023 27.264 19.3049C26.5612 19.6087 25.577 19.8068 24.3468 19.8526C21.8925 19.9439 18.6715 19.4213 15.2912 18.2248C11.9108 17.0284 9.09795 15.4153 7.27816 13.8112C6.36602 13.0072 5.74311 12.2403 5.40546 11.5682C5.06906 10.8986 5.05502 10.4115 5.18487 10.0646C5.31472 9.71766 5.64745 9.35329 6.34774 9.05064C7.05061 8.74687 8.03474 8.54873 9.26494 8.50297C11.7193 8.41167 14.9403 8.9343 18.3206 10.1308C21.7009 11.3272 24.5138 12.9402 26.3336 14.5443C27.2457 15.3484 27.8687 16.1153 28.2063 16.7874C28.5427 17.4569 28.5567 17.944 28.4269 18.291Z" stroke="#224462" stroke-width="2"/>
</g>
<ellipse rx="8.11517" ry="5.09953" transform="matrix(0.942809 0.333428 -0.350797 0.936487 17.4588 12.2941)" fill="#417DB5"/>
</g>
<path d="M58.8018 9.01367C58.6585 9.25 58.4616 9.60807 58.2109 10.0879C58.1322 10.3099 57.9925 10.625 57.792 11.0332C57.749 11.0977 57.6917 11.1299 57.6201 11.1299C57.6273 11.1299 57.2799 11.0046 56.5781 10.7539C55.8835 10.4961 55.3105 10.3672 54.8594 10.3672C53.5417 10.3672 52.8828 10.9473 52.8828 12.1074C52.8828 12.752 53.3447 13.3141 54.2686 13.7939C55.8226 14.6032 56.682 15.0687 56.8467 15.1904C57.7705 15.9281 58.2324 16.9235 58.2324 18.1768C58.2324 19.7809 57.5986 21.0449 56.3311 21.9688C55.1924 22.7995 53.7923 23.2148 52.1309 23.2148C51.3574 23.2148 50.9421 23.1289 50.8848 22.957C50.8561 22.6849 50.7917 22.2874 50.6914 21.7646C50.6341 21.5498 50.5446 21.2275 50.4229 20.7979C50.4014 20.7334 50.3906 20.6725 50.3906 20.6152C50.3906 20.515 50.4443 20.4648 50.5518 20.4648C50.7236 20.4648 50.985 20.4827 51.3359 20.5186C51.694 20.5544 51.9626 20.5723 52.1416 20.5723C54.3617 20.5723 55.4717 19.8561 55.4717 18.4238C55.4717 17.722 55.0241 17.1133 54.1289 16.5977C52.4961 15.6667 51.6618 15.1833 51.626 15.1475C50.7236 14.417 50.2725 13.4359 50.2725 12.2041C50.2725 10.8721 50.7093 9.80501 51.583 9.00293C52.4352 8.22949 53.5381 7.84277 54.8916 7.84277C55.4645 7.84277 56.1234 7.93587 56.8682 8.12207C57.6774 8.32975 58.2861 8.5804 58.6943 8.87402C58.7301 8.90267 58.766 8.94922 58.8018 9.01367ZM82.1875 17.833C82.1875 19.2796 81.7292 20.5365 80.8125 21.6035C79.8529 22.7279 78.6605 23.29 77.2354 23.29C76.3473 23.29 75.5703 23.0143 74.9043 22.4629C74.6035 22.1836 74.3027 21.9007 74.002 21.6143C73.959 21.6357 73.9303 21.693 73.916 21.7861C73.9089 21.8291 73.9053 22.2301 73.9053 22.9893L73.8945 26.0186C73.8945 26.2477 73.8122 26.3623 73.6475 26.3623C72.5446 26.3623 71.8929 26.348 71.6924 26.3193C71.5277 26.2979 71.4453 26.2048 71.4453 26.04C71.4453 25.1234 71.4525 23.7484 71.4668 21.915C71.4811 20.0817 71.4883 18.7067 71.4883 17.79C71.4883 16.1071 71.3809 14.528 71.166 13.0527C71.1517 12.9668 71.1445 12.9095 71.1445 12.8809C71.1445 12.8021 71.1803 12.752 71.252 12.7305C71.5241 12.7161 71.9215 12.6768 72.4443 12.6123C73.1462 12.4834 73.54 12.4189 73.626 12.4189C73.7477 12.4189 73.8265 12.6338 73.8623 13.0635C73.8838 13.3499 73.9017 13.6328 73.916 13.9121C73.916 13.9694 73.9375 14.0267 73.9805 14.084C74.0306 14.0553 74.0879 14.0052 74.1523 13.9336C75.1549 12.9095 76.1683 12.3975 77.1924 12.3975C78.6104 12.3975 79.8063 12.9525 80.7803 14.0625C81.7184 15.1296 82.1875 16.3864 82.1875 17.833ZM79.6738 17.79C79.6738 16.9307 79.4053 16.1751 78.8682 15.5234C78.3024 14.8288 77.597 14.4814 76.752 14.4814C75.9212 14.4814 75.2409 14.8395 74.7109 15.5557C74.224 16.2002 73.9805 16.9521 73.9805 17.8115C73.9805 18.6852 74.2311 19.4443 74.7324 20.0889C75.2839 20.7835 75.9857 21.1309 76.8379 21.1309C77.6543 21.1309 78.3418 20.7692 78.9004 20.0459C79.416 19.3727 79.6738 18.6208 79.6738 17.79ZM105.305 13.2783C105.305 13.307 105.294 13.3714 105.272 13.4717C104.993 15.1117 104.854 16.526 104.854 17.7148C104.854 17.7865 104.943 19.3942 105.122 22.5381L105.133 22.6885C105.14 22.8962 105.043 23 104.843 23C104.649 23 104.352 23.0215 103.951 23.0645C103.557 23.1146 103.264 23.1396 103.07 23.1396C102.934 23.1396 102.83 22.889 102.759 22.3877C102.687 21.8864 102.619 21.6357 102.555 21.6357C102.512 21.6357 102.318 21.7754 101.975 22.0547C101.552 22.3984 101.158 22.6598 100.793 22.8389C100.227 23.1253 99.6615 23.2686 99.0957 23.2686C97.7064 23.2686 96.5355 22.7135 95.583 21.6035C94.6807 20.5436 94.2295 19.3083 94.2295 17.8975C94.2295 16.3076 94.6842 14.9935 95.5938 13.9551C96.5462 12.8737 97.7995 12.333 99.3535 12.333C100.449 12.333 101.405 12.7126 102.222 13.4717C102.343 13.6149 102.533 13.8226 102.791 14.0947C102.812 14.1162 102.834 14.127 102.855 14.127C102.898 14.127 102.959 13.9014 103.038 13.4502C103.117 12.999 103.217 12.7734 103.339 12.7734C103.532 12.7734 103.894 12.8271 104.424 12.9346C105.011 13.0635 105.305 13.1781 105.305 13.2783ZM102.565 17.7686C102.565 16.8877 102.304 16.1322 101.781 15.502C101.23 14.8216 100.524 14.4814 99.665 14.4814C98.8057 14.4814 98.0895 14.818 97.5166 15.4912C96.9652 16.1357 96.6895 16.8949 96.6895 17.7686C96.6895 18.6351 96.9652 19.387 97.5166 20.0244C98.0895 20.6904 98.8057 21.0234 99.665 21.0234C100.503 21.0234 101.205 20.6833 101.771 20.0029C102.3 19.3656 102.565 18.6208 102.565 17.7686ZM125.564 13.2568C125.564 13.4144 125.482 13.7653 125.317 14.3096C125.153 14.8538 125.038 15.126 124.974 15.126C124.651 14.9827 124.326 14.8395 123.996 14.6963C123.674 14.5531 123.319 14.4814 122.933 14.4814C122.052 14.4814 121.318 14.8073 120.73 15.459C120.143 16.1107 119.85 16.8805 119.85 17.7686C119.85 18.6423 120.143 19.3978 120.73 20.0352C121.332 20.694 122.066 21.0234 122.933 21.0234C123.412 21.0234 123.885 20.9053 124.351 20.6689C124.816 20.4326 125.02 20.3145 124.963 20.3145C125.056 20.3145 125.16 20.6152 125.274 21.2168C125.382 21.7611 125.436 22.137 125.436 22.3447C125.436 22.5667 125.017 22.7852 124.179 23C123.477 23.179 122.958 23.2686 122.621 23.2686C121.146 23.2686 119.9 22.7171 118.883 21.6143C117.887 20.54 117.39 19.2581 117.39 17.7686C117.39 16.2503 117.877 14.9613 118.851 13.9014C119.853 12.8128 121.103 12.2686 122.6 12.2686C123.602 12.2686 124.519 12.5228 125.35 13.0312C125.493 13.1172 125.564 13.1924 125.564 13.2568ZM147.017 17.2314C147.017 17.7614 146.787 18.1159 146.329 18.2949C146.021 18.4095 143.805 18.6208 139.68 18.9287C139.773 19.5589 140.12 20.096 140.722 20.54C141.295 20.9626 141.91 21.1738 142.569 21.1738C143.701 21.1738 144.739 20.8086 145.685 20.0781C145.799 19.985 145.914 19.8919 146.028 19.7988C146.086 19.7988 146.121 19.806 146.136 19.8203C146.157 19.8346 146.293 20.0853 146.544 20.5723C146.795 21.0521 146.92 21.3099 146.92 21.3457C146.92 21.3887 146.863 21.471 146.748 21.5928C145.695 22.71 144.345 23.2686 142.698 23.2686C141.037 23.2686 139.712 22.7744 138.724 21.7861C137.735 20.7907 137.241 19.4658 137.241 17.8115C137.241 16.3363 137.714 15.0508 138.659 13.9551C139.655 12.8164 140.876 12.2471 142.322 12.2471C143.669 12.2471 144.793 12.7412 145.695 13.7295C146.576 14.6891 147.017 15.8564 147.017 17.2314ZM144.46 16.5762C144.46 15.9818 144.224 15.4554 143.751 14.9971C143.285 14.5387 142.759 14.3096 142.172 14.3096C141.513 14.3096 140.926 14.5745 140.41 15.1045C139.902 15.6344 139.647 16.2288 139.647 16.8877C139.647 17.0381 139.776 17.1133 140.034 17.1133C141.094 17.1133 142.362 17.0059 143.837 16.791C144.252 16.7337 144.46 16.6621 144.46 16.5762ZM168.576 15.5234C168.576 16.7337 168.54 17.4642 168.469 17.7148C168.376 18.0371 167.488 19.4443 165.805 21.9365C164.129 24.4215 163.133 25.8109 162.818 26.1045C162.532 26.3623 161.608 26.4912 160.047 26.4912C159.861 26.4912 159.739 26.4697 159.682 26.4268C159.632 26.391 159.51 26.1331 159.316 25.6533C159.13 25.1735 159.037 24.887 159.037 24.7939C159.037 24.6364 159.227 24.5576 159.606 24.5576C160.409 24.5576 160.999 24.443 161.379 24.2139C161.508 24.1351 161.701 23.888 161.959 23.4727C162.224 23.0573 162.356 22.778 162.356 22.6348C162.356 22.4414 161.837 21.6859 160.799 20.3682C159.703 18.9717 159.091 18.0872 158.962 17.7148C158.862 17.4212 158.812 16.7194 158.812 15.6094C158.812 15.3372 158.815 14.929 158.822 14.3848C158.829 13.8333 158.833 13.418 158.833 13.1387C158.833 12.9811 158.919 12.9023 159.091 12.9023C159.32 12.9023 159.657 12.9167 160.101 12.9453C160.552 12.974 160.892 12.9883 161.121 12.9883C161.236 12.9883 161.293 13.0635 161.293 13.2139C161.293 13.4144 161.282 13.7152 161.261 14.1162C161.239 14.5173 161.229 14.818 161.229 15.0186C161.229 15.8923 161.257 16.5439 161.314 16.9736C161.357 17.2458 161.748 17.9225 162.485 19.0039C163.223 20.0853 163.678 20.626 163.85 20.626C163.971 20.626 164.358 20.096 165.01 19.0361C165.661 17.9691 166.009 17.3102 166.052 17.0596C166.109 16.7015 166.138 16.0498 166.138 15.1045C166.138 14.8968 166.116 14.5924 166.073 14.1914C166.03 13.7832 166.009 13.4788 166.009 13.2783C166.009 13.0993 166.066 13.0098 166.181 13.0098C166.41 13.0098 166.754 12.9954 167.212 12.9668C167.677 12.931 168.025 12.9131 168.254 12.9131C168.469 12.9131 168.576 13.7832 168.576 15.5234Z" fill="black"/>
<defs>
<filter id="filter0_d_2409_4731" x="4.48389" y="5.5592" width="26.0996" height="24.9056" filterUnits="userSpaceOnUse" color-interpolation-filters="sRGB">
<feFlood flood-opacity="0" result="BackgroundImageFix"/>
<feColorMatrix in="SourceAlpha" type="matrix" values="0 0 0 0 0 0 0 0 0 0 0 0 0 0 0 0 0 0 127 0" result="hardAlpha"/>
<feOffset dx="1" dy="3"/>
<feGaussianBlur stdDeviation="2"/>
<feComposite in2="hardAlpha" operator="out"/>
<feColorMatrix type="matrix" values="0 0 0 0 0 0 0 0 0 0 0 0 0 0 0 0 0 0 0.25 0"/>
<feBlend mode="normal" in2="BackgroundImageFix" result="effect1_dropShadow_2409_4731"/>
<feBlend mode="normal" in="SourceGraphic" in2="effect1_dropShadow_2409_4731" result="shape"/>
</filter>
<filter id="filter1_i_2409_4731" x="4.10254" y="7.49854" width="25.4062" height="17.3584" filterUnits="userSpaceOnUse" color-interpolation-filters="sRGB">
<feFlood flood-opacity="0" result="BackgroundImageFix"/>
<feBlend mode="normal" in="SourceGraphic" in2="BackgroundImageFix" result="shape"/>
<feColorMatrix in="SourceAlpha" type="matrix" values="0 0 0 0 0 0 0 0 0 0 0 0 0 0 0 0 0 0 127 0" result="hardAlpha"/>
<feOffset dy="4"/>
<feGaussianBlur stdDeviation="2"/>
<feComposite in2="hardAlpha" operator="arithmetic" k2="-1" k3="1"/>
<feColorMatrix type="matrix" values="0 0 0 0 0 0 0 0 0 0 0 0 0 0 0 0 0 0 0.25 0"/>
<feBlend mode="normal" in2="shape" result="effect1_innerShadow_2409_4731"/>
</filter>
<clipPath id="clip0_2409_4731">
<rect width="33" height="30" fill="white"/>
</clipPath>
</defs>
</svg>
