<svg width="135" height="125" viewBox="0 0 135 125" fill="none" xmlns="http://www.w3.org/2000/svg">
<g filter="url(#filter0_d_54_299)">
<ellipse rx="36.607" ry="35.3484" transform="matrix(1 -7.61903e-09 0.0417043 0.99913 67.6365 62.3855)" fill="#417DB5"/>
</g>
<g filter="url(#filter1_i_54_299)">
<path d="M117.608 76.7037C116.885 78.6899 115.117 80.4561 112.025 81.8003C108.925 83.1476 104.709 83.9651 99.5869 84.1318C89.3568 84.4647 76.0383 82.1859 62.1193 77.1197C48.2003 72.0536 36.5329 65.2384 28.9102 58.4076C25.0934 54.9873 22.3895 51.6512 20.8811 48.6267C19.376 45.6091 19.1571 43.1198 19.88 41.1336C20.6028 39.1475 22.3707 37.3813 25.4633 36.0371C28.563 34.6898 32.7786 33.8723 37.901 33.7056C48.1311 33.3726 61.4496 35.6515 75.3686 40.7176C89.2876 45.7837 100.955 52.599 108.578 59.4298C112.395 62.8501 115.098 66.1861 116.607 69.2107C118.112 72.2283 118.331 74.7176 117.608 76.7037Z" stroke="#19344C" stroke-width="5"/>
</g>
<ellipse cx="71.399" cy="51.0909" rx="33.222" ry="20.9944" transform="rotate(20 71.399 51.0909)" fill="#417DB5"/>
<defs>
<filter id="filter0_d_54_299" x="27.9992" y="26.0679" width="81.2746" height="78.6353" filterUnits="userSpaceOnUse" color-interpolation-filters="sRGB">
<feFlood flood-opacity="0" result="BackgroundImageFix"/>
<feColorMatrix in="SourceAlpha" type="matrix" values="0 0 0 0 0 0 0 0 0 0 0 0 0 0 0 0 0 0 127 0" result="hardAlpha"/>
<feOffset dx="1" dy="3"/>
<feGaussianBlur stdDeviation="2"/>
<feComposite in2="hardAlpha" operator="out"/>
<feColorMatrix type="matrix" values="0 0 0 0 0 0 0 0 0 0 0 0 0 0 0 0 0 0 0.25 0"/>
<feBlend mode="normal" in2="BackgroundImageFix" result="effect1_dropShadow_54_299"/>
<feBlend mode="normal" in="SourceGraphic" in2="effect1_dropShadow_54_299" result="shape"/>
</filter>
<filter id="filter1_i_54_299" x="16.9806" y="31.1738" width="103.527" height="59.4898" filterUnits="userSpaceOnUse" color-interpolation-filters="sRGB">
<feFlood flood-opacity="0" result="BackgroundImageFix"/>
<feBlend mode="normal" in="SourceGraphic" in2="BackgroundImageFix" result="shape"/>
<feColorMatrix in="SourceAlpha" type="matrix" values="0 0 0 0 0 0 0 0 0 0 0 0 0 0 0 0 0 0 127 0" result="hardAlpha"/>
<feOffset dy="4"/>
<feGaussianBlur stdDeviation="2"/>
<feComposite in2="hardAlpha" operator="arithmetic" k2="-1" k3="1"/>
<feColorMatrix type="matrix" values="0 0 0 0 0 0 0 0 0 0 0 0 0 0 0 0 0 0 0.25 0"/>
<feBlend mode="normal" in2="shape" result="effect1_innerShadow_54_299"/>
</filter>
</defs>
</svg>
