<svg width="176" height="181" viewBox="0 0 176 181" fill="none" xmlns="http://www.w3.org/2000/svg">
<g filter="url(#filter0_d_28_365)">
<ellipse rx="36.607" ry="35.3484" transform="matrix(0.997772 -0.0667235 0.108277 0.994121 93.6365 85.5496)" fill="#417DB5"/>
</g>
<g filter="url(#filter1_i_28_365)">
<path d="M143.608 99.8678C142.885 101.854 141.117 103.62 138.025 104.964C134.925 106.312 130.709 107.129 125.587 107.296C115.357 107.629 102.038 105.35 88.1193 100.284C74.2003 95.2177 62.5329 88.4024 54.9102 81.5716C51.0934 78.1513 48.3895 74.8153 46.8811 71.7908C45.376 68.7731 45.1571 66.2838 45.88 64.2977C46.6028 62.3116 48.3707 60.5453 51.4633 59.2011C54.563 57.8539 58.7786 57.0363 63.901 56.8696C74.1311 56.5367 87.4496 58.8156 101.369 63.8817C115.288 68.9478 126.955 75.763 134.578 82.5938C138.395 86.0142 141.098 89.3502 142.607 92.3747C144.112 95.3923 144.331 97.8817 143.608 99.8678Z" stroke="#19344C" stroke-width="5"/>
</g>
<ellipse cx="97.4367" cy="74.6846" rx="34.178" ry="20.9944" transform="rotate(20 97.4367 74.6846)" fill="#417DB5"/>
<g filter="url(#filter2_d_28_365)">
<path d="M14 19L16.2451 25.9098H23.5106L17.6327 30.1803L19.8779 37.0902L14 32.8197L8.12215 37.0902L10.3673 30.1803L4.48944 25.9098H11.7549L14 19Z" fill="#CFD162"/>
</g>
<g filter="url(#filter3_d_28_365)">
<path d="M128 156L130.245 162.91H137.511L131.633 167.18L133.878 174.09L128 169.82L122.122 174.09L124.367 167.18L118.489 162.91H125.755L128 156Z" fill="#CFD162"/>
</g>
<g filter="url(#filter4_d_28_365)">
<path d="M162 104L164.245 110.91H171.511L165.633 115.18L167.878 122.09L162 117.82L156.122 122.09L158.367 115.18L152.489 110.91H159.755L162 104Z" fill="#CFD162"/>
</g>
<g filter="url(#filter5_d_28_365)">
<path d="M83.3549 18.2877C83.3039 18.508 83.2424 18.8366 83.1701 19.2736C83.1656 19.4663 83.1376 19.7469 83.086 20.1154C83.0691 20.1765 83.0328 20.2162 82.9772 20.2345C82.9827 20.2327 82.6807 20.224 82.0712 20.2085C81.4654 20.1856 80.9871 20.2318 80.6365 20.3471C79.6123 20.6837 79.2484 21.303 79.5448 22.2047C79.7095 22.7057 80.2122 23.0246 81.0528 23.1615C82.4675 23.3934 83.2544 23.5357 83.4135 23.5882C84.32 23.9255 84.9334 24.5812 85.2536 25.5553C85.6635 26.8022 85.4938 27.9466 84.7446 28.9885C84.0719 29.9251 83.0898 30.6057 81.7984 31.0302C81.1972 31.2278 80.8524 31.2672 80.764 31.1482C80.6722 30.944 80.5205 30.6516 80.309 30.2708C80.2096 30.1185 80.0577 29.8909 79.8532 29.588C79.8201 29.5434 79.7962 29.4988 79.7815 29.4543C79.7559 29.3764 79.7849 29.3237 79.8683 29.2962C80.0019 29.2523 80.2097 29.1994 80.4916 29.1376C80.7791 29.0739 80.9924 29.0192 81.1315 28.9735C82.8571 28.4063 83.5369 27.566 83.1709 26.4527C82.9916 25.9072 82.4882 25.5485 81.6606 25.3764C80.1536 25.07 79.3816 24.9074 79.3447 24.8887C78.4567 24.5515 77.8553 23.9042 77.5406 22.9468C77.2002 21.9115 77.2671 20.9705 77.7413 20.1238C78.2061 19.3049 78.9645 18.7225 80.0165 18.3767C80.4618 18.2303 80.9977 18.1343 81.6242 18.0888C82.3062 18.0434 82.8434 18.0827 83.2357 18.2066C83.2709 18.2197 83.3106 18.2468 83.3549 18.2877Z" fill="#19344C"/>
<path d="M101.83 23.2874C101.877 24.4701 101.543 25.5125 100.828 26.4147C100.081 27.3652 99.124 27.8636 97.9589 27.91C97.2329 27.9389 96.5887 27.7388 96.0263 27.3097C95.7713 27.0912 95.5162 26.8697 95.2609 26.6453C95.2265 26.6643 95.2049 26.7121 95.1963 26.7886C95.1918 26.824 95.2019 27.152 95.2267 27.7726L95.3166 30.2495C95.324 30.4368 95.2604 30.5332 95.1258 30.5386C94.2241 30.5745 93.6909 30.584 93.526 30.5671C93.3907 30.5549 93.3203 30.4815 93.315 30.3468C93.2851 29.5974 93.2462 28.4731 93.1981 26.9738C93.1501 25.4745 93.1112 24.3502 93.0813 23.6008C93.0265 22.2249 92.8873 20.9375 92.6636 19.7384C92.6491 19.6686 92.6413 19.622 92.6404 19.5986C92.6378 19.5342 92.6655 19.492 92.7233 19.4721C92.9453 19.4515 93.269 19.4064 93.6943 19.3367C94.2639 19.2084 94.5838 19.1429 94.654 19.1401C94.7536 19.1361 94.825 19.3092 94.8682 19.6593C94.8951 19.8928 94.919 20.1235 94.9398 20.3514C94.9416 20.3982 94.9611 20.4443 94.9981 20.4898C95.0381 20.4647 95.0833 20.4219 95.1337 20.3612C95.92 19.4914 96.7318 19.0397 97.569 19.0064C98.7282 18.9602 99.724 19.375 100.556 20.2507C101.358 21.0925 101.783 22.1047 101.83 23.2874ZM99.7733 23.3342C99.7453 22.6316 99.5011 22.0227 99.0408 21.5074C98.5557 20.9579 97.9677 20.6969 97.2768 20.7244C96.5976 20.7515 96.0531 21.0664 95.6432 21.6691C95.2661 22.2119 95.0915 22.8346 95.1195 23.5372C95.148 24.2515 95.3776 24.8639 95.8084 25.3745C96.2819 25.9244 96.8669 26.1855 97.5637 26.1578C98.2311 26.1312 98.7814 25.8131 99.2145 25.2036C99.6141 24.6364 99.8004 24.0133 99.7733 23.3342Z" fill="#19344C"/>
<path d="M118.861 22.5917C118.856 22.6145 118.834 22.6635 118.797 22.7387C118.247 23.9838 117.853 25.0779 117.615 26.0209C117.601 26.0778 117.35 27.3711 116.862 29.901L116.841 30.0225C116.805 30.1887 116.708 30.2517 116.548 30.2115C116.395 30.1728 116.155 30.1304 115.828 30.0842C115.506 30.0451 115.268 30.0062 115.114 29.9675C115.006 29.9402 114.974 29.7206 115.018 29.3086C115.061 28.8965 115.058 28.6841 115.006 28.6712C114.972 28.6626 114.791 28.7346 114.462 28.8874C114.058 29.0755 113.694 29.204 113.368 29.2729C112.862 29.3869 112.384 29.3872 111.935 29.274C110.833 28.9958 110.016 28.3211 109.482 27.2498C108.979 26.2283 108.868 25.158 109.15 24.0388C109.469 22.7775 110.093 21.8261 111.022 21.1844C111.994 20.5172 113.097 20.3392 114.329 20.6503C115.199 20.8697 115.881 21.3622 116.377 22.1279C116.445 22.2659 116.554 22.4686 116.704 22.7361C116.716 22.7575 116.731 22.7703 116.748 22.7746C116.782 22.7832 116.876 22.6164 117.029 22.2743C117.182 21.9321 117.306 21.7733 117.403 21.7976C117.556 21.8364 117.832 21.9514 118.231 22.1427C118.671 22.3625 118.881 22.5122 118.861 22.5917ZM115.789 25.6054C115.966 24.9067 115.909 24.255 115.621 23.6503C115.32 23.0002 114.828 22.5891 114.146 22.4171C113.465 22.245 112.829 22.3686 112.24 22.788C111.673 23.1889 111.303 23.7359 111.128 24.429C110.954 25.1164 111.022 25.7682 111.332 26.3842C111.653 27.0273 112.155 27.4348 112.837 27.6069C113.501 27.7746 114.126 27.6453 114.711 27.2188C115.259 26.8193 115.619 26.2815 115.789 25.6054Z" fill="#19344C"/>
<path d="M131.629 28.6645C131.566 28.7772 131.368 28.9956 131.034 29.3197C130.7 29.6437 130.51 29.7929 130.464 29.7673C130.29 29.5369 130.114 29.3051 129.935 29.0719C129.761 28.8415 129.536 28.6496 129.26 28.4961C128.629 28.1465 127.975 28.0883 127.296 28.3215C126.617 28.5547 126.102 28.989 125.749 29.6243C125.402 30.2494 125.313 30.9065 125.48 31.5956C125.649 32.3057 126.043 32.8328 126.663 33.1767C127.006 33.3671 127.391 33.4702 127.818 33.4859C128.245 33.5015 128.438 33.498 128.397 33.4753C128.464 33.5122 128.419 33.7686 128.262 34.2445C128.123 34.6765 128.012 34.9669 127.929 35.1154C127.841 35.2743 127.455 35.2643 126.77 35.0854C126.197 34.935 125.79 34.793 125.549 34.6594C124.494 34.0738 123.821 33.1847 123.531 31.9921C123.245 30.8284 123.398 29.7137 123.989 28.6479C124.592 27.5617 125.452 26.8327 126.569 26.4609C127.719 26.0801 128.829 26.1866 129.9 26.7807C130.617 27.1786 131.172 27.7243 131.564 28.4178C131.633 28.5362 131.654 28.6184 131.629 28.6645Z" fill="#19344C"/>
<path d="M141.609 41.0229C141.312 41.3383 140.976 41.4205 140.603 41.2697C140.356 41.1649 138.918 40.0459 136.291 37.9127C135.992 38.34 135.897 38.8546 136.006 39.4566C136.109 40.0298 136.357 40.5013 136.749 40.8713C137.423 41.5068 138.246 41.8726 139.218 41.9688C139.339 41.9777 139.459 41.9867 139.58 41.9956C139.614 42.0278 139.631 42.0522 139.631 42.0687C139.636 42.0893 139.576 42.3149 139.452 42.7454C139.332 43.1717 139.262 43.3955 139.241 43.4168C139.217 43.4423 139.137 43.4592 139 43.4673C137.747 43.5408 136.63 43.1151 135.65 42.1902C134.661 41.2571 134.15 40.2191 134.117 39.0761C134.088 37.9288 134.538 36.8629 135.467 35.8786C136.295 35.0007 137.299 34.5013 138.476 34.3801C139.708 34.2616 140.754 34.6085 141.615 35.4209C142.416 36.177 142.808 37.1024 142.79 38.1972C142.775 39.2628 142.382 40.2048 141.609 41.0229ZM140.456 39.1973C140.79 38.8436 140.945 38.3977 140.921 37.8595C140.901 37.3254 140.717 36.8935 140.368 36.5637C139.975 36.1937 139.477 36.0216 138.873 36.0474C138.273 36.0772 137.788 36.2881 137.418 36.6801C137.333 36.7696 137.368 36.8867 137.521 37.0315C138.152 37.6267 138.966 38.2746 139.965 38.9753C140.244 39.1744 140.408 39.2484 140.456 39.1973Z" fill="#19344C"/>
<path d="M151.279 52.2359C150.437 52.7577 149.914 53.0478 149.709 53.1061C149.445 53.1803 148.083 53.1696 145.625 53.0739C143.174 52.9802 141.779 52.887 141.439 52.7945C141.136 52.7065 140.648 52.1197 139.975 51.0341C139.895 50.9047 139.857 50.8107 139.862 50.7524C139.865 50.7021 139.992 50.5063 140.242 50.1649C140.496 49.8286 140.655 49.6403 140.72 49.6002C140.829 49.5322 140.966 49.6302 141.129 49.8942C141.475 50.4519 141.81 50.8133 142.133 50.9784C142.243 51.0341 142.498 51.062 142.898 51.0622C143.301 51.0673 143.553 51.039 143.652 50.9773C143.787 50.8939 144.088 50.2071 144.557 48.9169C145.055 47.5528 145.406 46.7457 145.61 46.4955C145.771 46.2992 146.237 45.9617 147.009 45.4831C147.198 45.3658 147.483 45.1923 147.865 44.9626C148.251 44.7298 148.542 44.5532 148.736 44.4327C148.846 44.3648 148.937 44.3906 149.012 44.5101C149.11 44.6695 149.246 44.9097 149.417 45.2308C149.592 45.5568 149.728 45.7996 149.827 45.9589C149.877 46.0386 149.849 46.1108 149.744 46.1757C149.605 46.2621 149.391 46.3844 149.103 46.5423C148.815 46.7003 148.601 46.8226 148.462 46.909C147.854 47.2857 147.413 47.5866 147.139 47.8118C146.969 47.959 146.666 48.5222 146.233 49.5013C145.799 50.4805 145.619 51.0299 145.693 51.1494C145.745 51.234 146.281 51.2744 147.299 51.2706C148.322 51.2636 148.929 51.2211 149.122 51.1429C149.396 51.0283 149.861 50.7672 150.519 50.3596C150.663 50.2701 150.866 50.1239 151.126 49.9211C151.391 49.7152 151.594 49.5691 151.733 49.4826C151.857 49.4054 151.944 49.4066 151.994 49.4863C152.093 49.6457 152.251 49.8785 152.468 50.1849C152.694 50.4931 152.856 50.7269 152.955 50.8862C153.048 51.0356 152.489 51.4855 151.279 52.2359Z" fill="#19344C"/>
</g>
<defs>
<filter id="filter0_d_28_365" x="53.9081" y="49.3228" width="81.4568" height="78.4536" filterUnits="userSpaceOnUse" color-interpolation-filters="sRGB">
<feFlood flood-opacity="0" result="BackgroundImageFix"/>
<feColorMatrix in="SourceAlpha" type="matrix" values="0 0 0 0 0 0 0 0 0 0 0 0 0 0 0 0 0 0 127 0" result="hardAlpha"/>
<feOffset dx="1" dy="3"/>
<feGaussianBlur stdDeviation="2"/>
<feComposite in2="hardAlpha" operator="out"/>
<feColorMatrix type="matrix" values="0 0 0 0 0 0 0 0 0 0 0 0 0 0 0 0 0 0 0.25 0"/>
<feBlend mode="normal" in2="BackgroundImageFix" result="effect1_dropShadow_28_365"/>
<feBlend mode="normal" in="SourceGraphic" in2="effect1_dropShadow_28_365" result="shape"/>
</filter>
<filter id="filter1_i_28_365" x="42.9806" y="54.3378" width="103.527" height="59.4898" filterUnits="userSpaceOnUse" color-interpolation-filters="sRGB">
<feFlood flood-opacity="0" result="BackgroundImageFix"/>
<feBlend mode="normal" in="SourceGraphic" in2="BackgroundImageFix" result="shape"/>
<feColorMatrix in="SourceAlpha" type="matrix" values="0 0 0 0 0 0 0 0 0 0 0 0 0 0 0 0 0 0 127 0" result="hardAlpha"/>
<feOffset dy="4"/>
<feGaussianBlur stdDeviation="2"/>
<feComposite in2="hardAlpha" operator="arithmetic" k2="-1" k3="1"/>
<feColorMatrix type="matrix" values="0 0 0 0 0 0 0 0 0 0 0 0 0 0 0 0 0 0 0.25 0"/>
<feBlend mode="normal" in2="shape" result="effect1_innerShadow_28_365"/>
</filter>
<filter id="filter2_d_28_365" x="0.489433" y="17" width="27.0211" height="26.0902" filterUnits="userSpaceOnUse" color-interpolation-filters="sRGB">
<feFlood flood-opacity="0" result="BackgroundImageFix"/>
<feColorMatrix in="SourceAlpha" type="matrix" values="0 0 0 0 0 0 0 0 0 0 0 0 0 0 0 0 0 0 127 0" result="hardAlpha"/>
<feOffset dy="2"/>
<feGaussianBlur stdDeviation="2"/>
<feComposite in2="hardAlpha" operator="out"/>
<feColorMatrix type="matrix" values="0 0 0 0 0 0 0 0 0 0 0 0 0 0 0 0 0 0 0.25 0"/>
<feBlend mode="normal" in2="BackgroundImageFix" result="effect1_dropShadow_28_365"/>
<feBlend mode="normal" in="SourceGraphic" in2="effect1_dropShadow_28_365" result="shape"/>
</filter>
<filter id="filter3_d_28_365" x="114.489" y="154" width="27.0211" height="26.0902" filterUnits="userSpaceOnUse" color-interpolation-filters="sRGB">
<feFlood flood-opacity="0" result="BackgroundImageFix"/>
<feColorMatrix in="SourceAlpha" type="matrix" values="0 0 0 0 0 0 0 0 0 0 0 0 0 0 0 0 0 0 127 0" result="hardAlpha"/>
<feOffset dy="2"/>
<feGaussianBlur stdDeviation="2"/>
<feComposite in2="hardAlpha" operator="out"/>
<feColorMatrix type="matrix" values="0 0 0 0 0 0 0 0 0 0 0 0 0 0 0 0 0 0 0.25 0"/>
<feBlend mode="normal" in2="BackgroundImageFix" result="effect1_dropShadow_28_365"/>
<feBlend mode="normal" in="SourceGraphic" in2="effect1_dropShadow_28_365" result="shape"/>
</filter>
<filter id="filter4_d_28_365" x="148.489" y="102" width="27.0211" height="26.0902" filterUnits="userSpaceOnUse" color-interpolation-filters="sRGB">
<feFlood flood-opacity="0" result="BackgroundImageFix"/>
<feColorMatrix in="SourceAlpha" type="matrix" values="0 0 0 0 0 0 0 0 0 0 0 0 0 0 0 0 0 0 127 0" result="hardAlpha"/>
<feOffset dy="2"/>
<feGaussianBlur stdDeviation="2"/>
<feComposite in2="hardAlpha" operator="out"/>
<feColorMatrix type="matrix" values="0 0 0 0 0 0 0 0 0 0 0 0 0 0 0 0 0 0 0.25 0"/>
<feBlend mode="normal" in2="BackgroundImageFix" result="effect1_dropShadow_28_365"/>
<feBlend mode="normal" in="SourceGraphic" in2="effect1_dropShadow_28_365" result="shape"/>
</filter>
<filter id="filter5_d_28_365" x="72.4262" y="17.3776" width="84.6752" height="47.5873" filterUnits="userSpaceOnUse" color-interpolation-filters="sRGB">
<feFlood flood-opacity="0" result="BackgroundImageFix"/>
<feColorMatrix in="SourceAlpha" type="matrix" values="0 0 0 0 0 0 0 0 0 0 0 0 0 0 0 0 0 0 127 0" result="hardAlpha"/>
<feOffset dy="4"/>
<feGaussianBlur stdDeviation="2"/>
<feComposite in2="hardAlpha" operator="out"/>
<feColorMatrix type="matrix" values="0 0 0 0 0 0 0 0 0 0 0 0 0 0 0 0 0 0 0.25 0"/>
<feBlend mode="normal" in2="BackgroundImageFix" result="effect1_dropShadow_28_365"/>
<feBlend mode="normal" in="SourceGraphic" in2="effect1_dropShadow_28_365" result="shape"/>
</filter>
</defs>
</svg>
