<svg width="30" height="31" viewBox="0 0 30 31" fill="none" xmlns="http://www.w3.org/2000/svg">
<path fill-rule="evenodd" clip-rule="evenodd" d="M9.6875 10.1318C9.6875 7.19782 12.066 4.81934 15 4.81934C17.934 4.81934 20.3125 7.19782 20.3125 10.1318C20.3125 13.0658 17.934 15.4443 15 15.4443C12.066 15.4443 9.6875 13.0658 9.6875 10.1318ZM15 6.69434C13.1015 6.69434 11.5625 8.23336 11.5625 10.1318C11.5625 12.0303 13.1015 13.5693 15 13.5693C16.8985 13.5693 18.4375 12.0303 18.4375 10.1318C18.4375 8.23336 16.8985 6.69434 15 6.69434Z" fill="#224462"/>
<path fill-rule="evenodd" clip-rule="evenodd" d="M10 19.1943C8.4467 19.1943 7.1875 20.4535 7.1875 22.0068V23.4922C7.1875 23.5148 7.20389 23.5341 7.22621 23.5377C12.3747 24.3783 17.6253 24.3783 22.7738 23.5377C22.7961 23.5341 22.8125 23.5148 22.8125 23.4922V22.0068C22.8125 20.4535 21.5533 19.1943 20 19.1943H19.5739C19.541 19.1943 19.5082 19.1995 19.4769 19.2098L18.395 19.563C16.189 20.2834 13.811 20.2834 11.605 19.563L10.5231 19.2098C10.4918 19.1995 10.459 19.1943 10.4261 19.1943H10ZM5.3125 22.0068C5.3125 19.418 7.41116 17.3193 10 17.3193H10.4261C10.6567 17.3193 10.8859 17.3558 11.1051 17.4274L12.187 17.7807C14.0148 18.3775 15.9852 18.3775 17.813 17.7807L18.8949 17.4274C19.1141 17.3558 19.3433 17.3193 19.5739 17.3193H20C22.5888 17.3193 24.6875 19.418 24.6875 22.0068V23.4922C24.6875 24.4337 24.0051 25.2365 23.0759 25.3882C17.7274 26.2615 12.2726 26.2615 6.92409 25.3882C5.99485 25.2365 5.3125 24.4337 5.3125 23.4922V22.0068Z" fill="#224462"/>
</svg>
