<svg width="52" height="50" viewBox="0 0 52 50" fill="none" xmlns="http://www.w3.org/2000/svg">
<path d="M34.8018 29.7811C35.4916 29.9729 36.2574 30.0416 36.843 30.4027C37.1966 30.6206 37.5203 31.3765 37.3992 31.7366C37.278 32.0968 36.5164 32.552 36.1556 32.4653C35.4136 32.2656 34.6372 32.229 33.8798 32.358C33.1224 32.487 32.4019 32.7786 31.7679 33.2127C30.2061 34.253 29.0276 35.7757 28.4122 37.5485C28.1928 38.1411 28.0784 38.9864 27.1579 38.7138C26.2626 38.4489 26.4402 37.6133 26.5499 36.9485C27.1493 33.32 31.1294 29.9301 34.8018 29.7811Z" fill="#224462"/>
<path d="M35.3116 19.5773C35.0849 20.1638 34.963 20.7502 34.6569 21.2153C33.9695 22.2591 32.4401 22.1944 32.0402 21.0263C31.743 20.1585 31.7863 19.1201 31.9144 18.1902C31.9594 17.8638 32.7083 17.4172 33.1367 17.4163C33.7184 17.4472 34.27 17.6844 34.6927 18.0852C35.0381 18.4208 35.1059 19.0424 35.3116 19.5773Z" fill="#224462"/>
<path d="M14.8638 20.6728C14.868 19.3792 15.4689 18.4811 16.3365 18.4716C17.1321 18.4631 17.8762 19.4099 17.9429 20.5159C18.0101 21.632 17.2625 22.5766 16.3053 22.5845C15.3726 22.5922 14.8598 21.912 14.8638 20.6728Z" fill="#224462"/>
<path d="M16.4456 12.2497C16.9873 12.6643 17.3819 12.9661 17.7763 13.2676C17.469 13.5795 17.2144 14.0283 16.8411 14.178C15.6931 14.6244 14.5233 15.0127 13.3362 15.3413C13.1437 15.3968 12.6547 15.1352 12.658 15.0311C12.67 14.6343 12.7058 14.0226 12.9521 13.8859C14.0396 13.2819 15.2033 12.8148 16.4456 12.2497Z" fill="#224462"/>
<path d="M34.9314 10.9942C35.8943 11.4318 36.8907 11.8122 37.7983 12.344C38.0491 12.4908 38.0355 13.0885 38.1433 13.4794C37.7579 13.581 37.3376 13.8349 36.9934 13.7564C35.8815 13.4875 34.7844 13.1609 33.7065 12.7777C33.5805 12.7263 33.4681 12.6464 33.3781 12.5444C33.2881 12.4424 33.2229 12.3208 33.1876 12.1894C33.1908 12.0522 33.2269 11.9179 33.2929 11.7975C33.3589 11.6772 33.4529 11.5745 33.5669 11.4981C33.94 11.3124 34.3851 11.2758 34.8006 11.177L34.9314 10.9942Z" fill="#224462"/>
<path d="M1.02605 18.1197C-1.24603 27.0497 0.743574 34.9276 6.94373 41.5384C7.10527 41.7092 7.26966 41.88 7.43427 42.0446C10.7647 45.375 14.9131 47.4313 18.2003 48.8623C19.6109 49.4784 26.8501 50.2266 28.8085 49.9349C40.4483 48.1969 48.1083 41.6317 50.7761 30.6484C51.2856 28.4969 51.5393 26.2929 51.532 24.0819C51.5445 18.8736 49.3514 12.8185 44.829 8.28359C44.3635 7.89862 43.8995 7.49981 43.4509 7.11331C42.4777 6.27686 41.472 5.41077 40.4198 4.67221C32.3822 -0.984725 24.0311 -1.01654 15.5992 1.98334C7.96499 4.69658 3.06241 10.127 1.02605 18.1197ZM15.6317 4.65646C23.03 1.58195 30.4531 1.03939 37.693 5.64412C39.0169 6.48694 42.5462 9.33929 43.1017 9.76772L43.1374 9.79409L43.1669 9.82677C45.9914 12.822 49.2257 18.2988 49.1543 23.9287C49.1308 26.3361 48.8049 28.7309 48.1844 31.0571C46.3454 37.7414 41.9485 42.613 34.7427 45.945C27.4175 49.4525 16.9122 45.9066 14.1171 44.0614C11.0275 41.9493 8.3243 39.3216 6.1255 36.2932C2.677 31.4109 1.90332 24.3927 3.75619 17.977C4.62343 15.0147 6.13903 12.2825 8.19309 9.97858C10.2471 7.67462 12.7882 5.85664 15.6319 4.65646H15.6317Z" fill="#224462"/>
</svg>
