<svg width="47" height="45" viewBox="0 0 47 45" fill="none" xmlns="http://www.w3.org/2000/svg">
<path d="M31.2167 26.8027C31.8376 26.9754 32.5268 27.0372 33.0538 27.3622C33.372 27.5583 33.6634 28.2386 33.5543 28.5627C33.4453 28.8869 32.7599 29.2966 32.4351 29.2186C31.7674 29.0388 31.0686 29.0059 30.3869 29.122C29.7052 29.2381 29.0568 29.5005 28.4862 29.8912C27.0806 30.8275 26.0199 32.1979 25.4661 33.7934C25.2686 34.3268 25.1657 35.0875 24.3372 34.8422C23.5315 34.6037 23.6913 33.8517 23.79 33.2534C24.3295 29.9878 27.9116 26.9369 31.2167 26.8027Z" fill="#417DB5"/>
<path d="M31.6756 17.6197C31.4715 18.1475 31.3619 18.6753 31.0863 19.0939C30.4676 20.0334 29.0912 19.9751 28.7313 18.9238C28.4639 18.1428 28.5028 17.2082 28.6181 16.3713C28.6586 16.0776 29.3326 15.6756 29.7182 15.6748C30.2417 15.7027 30.7382 15.9161 31.1185 16.2769C31.4294 16.5789 31.4905 17.1383 31.6756 17.6197Z" fill="#417DB5"/>
<path d="M13.2725 18.6052C13.2762 17.4409 13.8171 16.6326 14.5979 16.6241C15.314 16.6164 15.9836 17.4685 16.0437 18.4639C16.1041 19.4684 15.4313 20.3186 14.5699 20.3257C13.7304 20.3326 13.2689 19.7204 13.2725 18.6052Z" fill="#417DB5"/>
<path d="M14.6961 11.0244C15.1836 11.3976 15.5388 11.6692 15.8937 11.9406C15.6172 12.2213 15.388 12.6252 15.052 12.7599C14.0188 13.1617 12.966 13.5111 11.8976 13.8069C11.7244 13.8568 11.2843 13.6214 11.2872 13.5277C11.2981 13.1706 11.3303 12.6201 11.5519 12.497C12.5307 11.9534 13.578 11.5331 14.6961 11.0244Z" fill="#417DB5"/>
<path d="M31.3334 9.89453C32.2 10.2884 33.0968 10.6307 33.9136 11.1093C34.1393 11.2415 34.1271 11.7794 34.2241 12.1312C33.8772 12.2227 33.4989 12.4512 33.1892 12.3805C32.1885 12.1385 31.2011 11.8445 30.231 11.4997C30.1176 11.4534 30.0164 11.3815 29.9354 11.2897C29.8544 11.1979 29.7958 11.0885 29.764 10.9703C29.7668 10.8468 29.7993 10.7258 29.8587 10.6175C29.9181 10.5092 30.0027 10.4168 30.1053 10.348C30.4411 10.1809 30.8417 10.148 31.2157 10.0591L31.3334 9.89453Z" fill="#417DB5"/>
<path d="M0.818529 16.3077C-1.22634 24.3448 0.564297 31.4348 6.14444 37.3846C6.28982 37.5383 6.43777 37.692 6.58592 37.8401C9.5833 40.8375 13.3169 42.6882 16.2754 43.9761C17.5449 44.5306 24.0602 45.204 25.8228 44.9415C36.2986 43.3772 43.1925 37.4685 45.5936 27.5835C46.0521 25.6472 46.2804 23.6636 46.2739 21.6737C46.2851 16.9862 44.3114 11.5367 40.2412 7.45523C39.8222 7.10876 39.4046 6.74983 39.0009 6.40198C38.125 5.64917 37.2199 4.86969 36.2729 4.20499C29.039 -0.886253 21.5231 -0.91489 13.9344 1.785C7.06357 4.22692 2.65125 9.11431 0.818529 16.3077ZM13.9636 4.19081C20.6221 1.42375 27.3029 0.93545 33.8188 5.07971C35.0103 5.83824 38.1866 8.40536 38.6866 8.79095L38.7188 8.81468L38.7452 8.8441C41.2873 11.5398 44.1982 16.4689 44.134 21.5358C44.1128 23.7025 43.8195 25.8578 43.2611 27.9514C41.6059 33.9673 37.6487 38.3517 31.1635 41.3505C24.5708 44.5073 15.116 41.3159 12.6004 39.6552C9.81987 37.7544 7.38695 35.3895 5.40804 32.6639C2.30438 28.2698 1.60807 21.9534 3.27565 16.1793C4.05617 13.5132 5.42021 11.0543 7.26886 8.98072C9.11751 6.90715 11.4044 5.27098 13.9638 4.19081H13.9636Z" fill="#417DB5"/>
</svg>
