<svg width="78" height="75" viewBox="0 0 78 75" fill="none" xmlns="http://www.w3.org/2000/svg">
<path d="M52.4664 44.6719C53.5011 44.9596 54.6498 45.0627 55.5282 45.6042C56.0585 45.9312 56.5441 47.065 56.3624 47.6052C56.1807 48.1455 55.0383 48.8283 54.497 48.6983C53.3841 48.3987 52.2195 48.3438 51.0834 48.5373C49.9472 48.7308 48.8665 49.1682 47.9155 49.8193C45.5728 51.3798 43.8051 53.6639 42.882 56.3231C42.5528 57.212 42.3813 58.4798 41.0005 58.0709C39.6576 57.6736 39.9239 56.4202 40.0886 55.423C40.9877 49.9803 46.9578 44.8954 52.4664 44.6719Z" fill="#224462"/>
<path d="M53.2312 29.3655C52.8912 30.2452 52.7084 31.1249 52.2492 31.8225C51.218 33.3883 48.924 33.2912 48.3242 31.5391C47.8784 30.2373 47.9433 28.6797 48.1355 27.2848C48.203 26.7953 49.3263 26.1253 49.969 26.124C50.8415 26.1704 51.6689 26.5262 52.3028 27.1274C52.821 27.6308 52.9228 28.5632 53.2312 29.3655Z" fill="#224462"/>
<path d="M22.5591 31.0089C22.5654 29.0685 23.4668 27.7213 24.7682 27.7071C25.9616 27.6943 27.0777 29.1145 27.1778 30.7735C27.2785 32.4476 26.1572 33.8646 24.7215 33.8764C23.3223 33.888 22.5532 32.8677 22.5591 31.0089Z" fill="#224462"/>
<path d="M24.9319 18.375C25.7444 18.9969 26.3364 19.4496 26.928 19.9019C26.4671 20.3697 26.0852 21.043 25.5252 21.2675C23.8032 21.9372 22.0485 22.5195 20.2678 23.0124C19.9791 23.0957 19.2456 22.7032 19.2505 22.5472C19.2686 21.952 19.3223 21.0344 19.6917 20.8293C21.323 19.9233 23.0685 19.2227 24.9319 18.375Z" fill="#224462"/>
<path d="M52.6606 16.4912C54.1049 17.1477 55.5996 17.7182 56.9609 18.5159C57.3372 18.7362 57.3168 19.6327 57.4784 20.219C56.9003 20.3714 56.2699 20.7523 55.7536 20.6345C54.0858 20.2312 52.44 19.7412 50.8232 19.1665C50.6343 19.0893 50.4657 18.9696 50.3307 18.8165C50.1957 18.6635 50.0979 18.4812 50.0449 18.2841C50.0497 18.0783 50.1038 17.8767 50.2028 17.6962C50.3019 17.5157 50.4428 17.3617 50.6138 17.2471C51.1735 16.9686 51.8412 16.9136 52.4644 16.7655L52.6606 16.4912Z" fill="#224462"/>
<path d="M1.80269 27.1795C-1.60543 40.5746 1.37897 52.3914 10.6792 62.3076C10.9215 62.5638 11.1681 62.8199 11.415 63.0669C16.4106 68.0625 22.6333 71.147 27.5641 73.2935C29.68 74.2176 40.5388 75.34 43.4764 74.9024C60.9361 72.2953 72.426 62.4476 76.4277 45.9726C77.192 42.7454 77.5725 39.4393 77.5616 36.1229C77.5804 28.3104 74.2907 19.2278 67.5071 12.4254C66.8088 11.8479 66.1128 11.2497 65.4399 10.67C63.9801 9.41529 62.4716 8.11615 60.8933 7.00831C48.8368 -1.47709 36.3102 -1.52482 23.6625 2.97501C12.2111 7.04486 4.85723 15.1905 1.80269 27.1795ZM23.7112 6.98468C34.8086 2.37292 45.9433 1.55908 56.8031 8.46619C58.7889 9.7304 64.0829 14.0089 64.9161 14.6516L64.9698 14.6911L65.0139 14.7402C69.2507 19.2331 74.1021 27.4482 73.9951 35.8931C73.9598 39.5041 73.471 43.0964 72.5403 46.5856C69.7817 56.6121 63.1864 63.9195 52.3776 68.9175C41.3898 74.1788 25.6319 68.8599 21.4392 66.0921C16.8049 62.924 12.7501 58.9825 9.45187 54.4399C4.27911 47.1163 3.11859 36.5891 5.89789 26.9655C7.19876 22.5221 9.47216 18.4238 12.5532 14.9679C15.6343 11.5119 19.4459 8.78496 23.7115 6.98468H23.7112Z" fill="#224462"/>
</svg>
