<svg width="18" height="19" viewBox="0 0 18 19" fill="none" xmlns="http://www.w3.org/2000/svg">
    <path fill-rule="evenodd" clip-rule="evenodd"
        d="M10.1365 0.360262C9.51731 0.00999263 8.6783 0.00458798 8.05419 0.353955C5.66192 1.6931 3.49208 3.22853 1.59062 4.93154C1.29658 5.19489 1.08791 5.57758 1.09147 6.02802C1.09502 6.47662 1.30794 6.85419 1.60019 7.1132C3.48585 8.78438 5.65747 10.3212 8.00595 11.6497C8.62512 12 9.46413 12.0054 10.0882 11.656C12.4805 10.3169 14.6504 8.78147 16.5518 7.07846C16.8458 6.8151 17.0545 6.43242 17.051 5.98197C17.0474 5.53338 16.8345 5.1558 16.5422 4.89679C14.6566 3.22562 12.485 1.6888 10.1365 0.360262ZM8.68922 1.68671C8.91033 1.56294 9.27355 1.56411 9.49617 1.69004C11.7375 2.95796 13.8026 4.41666 15.5918 5.99223C13.7919 7.59315 11.7329 9.04714 9.45321 10.3233C9.2321 10.4471 8.86888 10.4459 8.64626 10.32C6.40496 9.05204 4.3398 7.59333 2.55067 6.01777C4.35048 4.41684 6.4095 2.96285 8.68922 1.68671Z"
        fill="current" />
    <path
        d="M17.5564 9.69803C17.7588 10.0494 17.6601 10.512 17.3359 10.7314L11.7014 14.5443C10.9368 15.0617 9.98814 15.3009 9.07113 15.301C8.15413 15.301 7.20546 15.0619 6.44076 14.5446L0.867944 10.7749C0.543746 10.5556 0.444954 10.093 0.647284 9.74156C0.849614 9.39016 1.27645 9.28308 1.60065 9.50239L7.17346 13.2721C7.67549 13.6117 8.35747 13.801 9.07105 13.801C9.78464 13.8009 10.4665 13.6116 10.9685 13.2719L16.603 9.45902C16.9272 9.23966 17.354 9.34667 17.5564 9.69803Z"
        fill="current" />
    <path
        d="M17.5564 13.4527C17.7588 13.804 17.6601 14.2667 17.336 14.4861L12.4564 17.7889C11.4807 18.4494 10.2601 18.7602 9.0711 18.7602C7.88213 18.7603 6.66148 18.4497 5.68557 17.7894L0.867873 14.5296C0.5437 14.3102 0.444959 13.8476 0.647328 13.4962C0.849697 13.1448 1.27654 13.0378 1.60072 13.2572L6.41841 16.517C7.1316 16.9995 8.0855 17.2603 9.07102 17.2602C10.0565 17.2602 11.0104 16.9993 11.7234 16.5167L16.6029 13.2138C16.9271 12.9944 17.3539 13.1013 17.5564 13.4527Z"
        fill="current" />
</svg>