<svg width="24" height="25" viewBox="0 0 24 25" fill="none" xmlns="http://www.w3.org/2000/svg">
<path d="M8.8901 15.9028C8.3419 15.9698 7.95185 16.4686 8.01889 17.0168C8.08593 17.565 8.58469 17.955 9.13289 17.888C9.68109 17.8209 10.0711 17.3222 10.0041 16.774C9.93706 16.2258 9.4383 15.8357 8.8901 15.9028Z" fill="#19344C"/>
<path d="M5.54813 13.2891C5.48108 12.7409 5.87114 12.2422 6.41934 12.1751C6.96754 12.1081 7.46629 12.4982 7.53334 13.0464C7.60038 13.5946 7.21032 14.0933 6.66212 14.1603C6.11392 14.2274 5.61517 13.8373 5.54813 13.2891Z" fill="#19344C"/>
<path d="M7.91897 7.96194C7.37077 8.02899 6.98072 8.52774 7.04776 9.07594C7.1148 9.62414 7.61356 10.0142 8.16176 9.94715C8.70996 9.88011 9.10001 9.38136 9.03297 8.83316C8.96593 8.28496 8.46717 7.8949 7.91897 7.96194Z" fill="#19344C"/>
<path d="M15.6973 9.78117C15.6303 9.23297 16.0203 8.73422 16.5685 8.66717C17.1167 8.60013 17.6155 8.99019 17.6825 9.53839C17.7496 10.0866 17.3595 10.5853 16.8113 10.6524C16.2631 10.7194 15.7644 10.3294 15.6973 9.78117Z" fill="#19344C"/>
<path d="M11.9926 11.3787C11.4444 11.4457 11.0544 11.9445 11.1214 12.4927C11.1885 13.0409 11.6872 13.4309 12.2354 13.3639C12.7836 13.2969 13.1737 12.7981 13.1066 12.2499C13.0396 11.7017 12.5408 11.3116 11.9926 11.3787Z" fill="#19344C"/>
<path d="M11.3931 7.53706C11.3261 6.98886 11.7161 6.49011 12.2643 6.42306C12.8125 6.35602 13.3113 6.74608 13.3783 7.29428C13.4453 7.84248 13.0553 8.34123 12.5071 8.40827C11.9589 8.47532 11.4601 8.08526 11.3931 7.53706Z" fill="#19344C"/>
<path fill-rule="evenodd" clip-rule="evenodd" d="M2.25292 12.2638C2.38342 6.88058 6.85315 2.62243 12.2363 2.75292C17.6195 2.88342 21.8777 7.35315 21.7472 12.7363C21.7389 13.0773 21.6243 13.3887 21.4132 13.6452C21.2113 13.8905 20.9499 14.0513 20.6919 14.159C20.1899 14.3685 19.5606 14.4343 18.9379 14.4385C16.2493 14.4567 13.9139 16.7693 13.7613 19.4968C13.7257 20.1331 13.6172 20.7804 13.3433 21.2889C13.2015 21.5523 13.0023 21.8028 12.7234 21.9842C12.4378 22.1699 12.1102 22.2556 11.7638 22.2472C6.38058 22.1167 2.12243 17.647 2.25292 12.2638ZM12.2 4.25248C7.64498 4.14206 3.8629 7.74511 3.75248 12.3001C3.64206 16.8551 7.24511 20.6372 11.8001 20.7476C11.8682 20.7493 11.8934 20.7346 11.9058 20.7266C11.9248 20.7142 11.9688 20.6777 12.0226 20.5778C12.14 20.3599 12.2321 19.9758 12.2636 19.413C12.4581 15.9381 15.4045 12.9623 18.9278 12.9385C19.4899 12.9347 19.8843 12.8707 20.114 12.7747C20.1952 12.7409 20.2331 12.7122 20.2477 12.6992C20.3576 8.14455 16.7547 4.36289 12.2 4.25248Z" fill="#19344C"/>
</svg>
