<svg width="30" height="30" viewBox="0 0 30 30" fill="none" xmlns="http://www.w3.org/2000/svg">
<path d="M11.1126 19.2534C10.4274 19.3372 9.93981 19.9606 10.0236 20.6459C10.1074 21.3311 10.7309 21.8187 11.4161 21.7349C12.1014 21.6511 12.5889 21.0276 12.5051 20.3424C12.4213 19.6571 11.7979 19.1696 11.1126 19.2534Z" fill="#224462"/>
<path d="M6.93516 15.9863C6.85135 15.3011 7.33892 14.6776 8.02417 14.5938C8.70943 14.51 9.33287 14.9976 9.41667 15.6828C9.50047 16.3681 9.0129 16.9915 8.32765 17.0753C7.6424 17.1591 7.01896 16.6716 6.93516 15.9863Z" fill="#224462"/>
<path d="M9.89872 9.32732C9.21347 9.41112 8.7259 10.0346 8.8097 10.7198C8.8935 11.4051 9.51694 11.8926 10.2022 11.8088C10.8874 11.725 11.375 11.1016 11.2912 10.4163C11.2074 9.73109 10.584 9.24352 9.89872 9.32732Z" fill="#224462"/>
<path d="M19.6217 11.6014C19.5379 10.9161 20.0254 10.2927 20.7107 10.2089C21.3959 10.1251 22.0194 10.6126 22.1032 11.2979C22.187 11.9831 21.6994 12.6066 21.0142 12.6904C20.3289 12.7742 19.7055 12.2866 19.6217 11.6014Z" fill="#224462"/>
<path d="M14.9908 13.5983C14.3056 13.6821 13.818 14.3055 13.9018 14.9908C13.9856 15.676 14.609 16.1636 15.2943 16.0798C15.9795 15.996 16.4671 15.3725 16.3833 14.6873C16.2995 14.002 15.6761 13.5145 14.9908 13.5983Z" fill="#224462"/>
<path d="M14.2414 8.79622C14.1576 8.11097 14.6451 7.48753 15.3304 7.40372C16.0156 7.31992 16.6391 7.80749 16.7229 8.49274C16.8067 9.17799 16.3191 9.80143 15.6339 9.88523C14.9486 9.96904 14.3252 9.48147 14.2414 8.79622Z" fill="#224462"/>
<path fill-rule="evenodd" clip-rule="evenodd" d="M2.81615 14.7046C2.97927 7.97562 8.56643 2.65292 15.2954 2.81604C22.0244 2.97916 27.3471 8.56633 27.184 15.2953C27.1737 15.7215 27.0304 16.1108 26.7665 16.4314C26.5141 16.738 26.1873 16.939 25.8649 17.0736C25.2373 17.3356 24.4508 17.4177 23.6724 17.423C20.3116 17.4457 17.3924 20.3365 17.2016 23.7459C17.1571 24.5413 17.0214 25.3504 16.6791 25.9861C16.5019 26.3152 16.2529 26.6284 15.9042 26.8551C15.5472 27.0872 15.1378 27.1944 14.7047 27.1839C7.97572 27.0208 2.65303 21.4336 2.81615 14.7046ZM15.25 4.69049C9.55622 4.55247 4.82862 9.05629 4.6906 14.75C4.55258 20.4438 9.05639 25.1714 14.7502 25.3094C14.8353 25.3115 14.8668 25.2932 14.8822 25.2831C14.9059 25.2677 14.961 25.222 15.0283 25.0971C15.175 24.8247 15.2902 24.3446 15.3295 23.6411C15.5726 19.2975 19.2556 15.5778 23.6597 15.548C24.3623 15.5433 24.8554 15.4632 25.1426 15.3433C25.244 15.301 25.2914 15.2652 25.3096 15.2489C25.4471 9.55558 20.9434 4.82851 15.25 4.69049Z" fill="#224462"/>
</svg>
