<svg width="22" height="22" viewBox="0 0 22 22" fill="none" xmlns="http://www.w3.org/2000/svg">
<path d="M4.75893 10.9993C4.75893 10.4815 5.17866 10.0618 5.69643 10.0618H10.0622V5.69598C10.0622 5.17821 10.4819 4.75848 10.9997 4.75848C11.5175 4.75848 11.9372 5.17821 11.9372 5.69598V10.0618H16.303C16.8208 10.0618 17.2405 10.4815 17.2405 10.9993C17.2405 11.517 16.8208 11.9368 16.303 11.9368H11.9372V16.3026C11.9372 16.8203 11.5175 17.2401 10.9997 17.2401C10.4819 17.2401 10.0622 16.8203 10.0622 16.3026V11.9368H5.69643C5.17866 11.9368 4.75893 11.517 4.75893 10.9993Z" fill="#224462"/>
<path fill-rule="evenodd" clip-rule="evenodd" d="M5.14561 0.710231C9.00505 0.278881 12.9943 0.278881 16.8537 0.710231C19.1367 0.965387 20.9803 2.76369 21.2489 5.05989C21.7104 9.00604 21.7104 12.9925 21.2489 16.9387C20.9803 19.2349 19.1367 21.0332 16.8537 21.2883C12.9943 21.7197 9.00506 21.7197 5.14561 21.2883C2.86263 21.0332 1.01901 19.2349 0.750451 16.9387C0.288912 12.9925 0.288912 9.00604 0.750451 5.05989C1.01901 2.76369 2.86264 0.965387 5.14561 0.710231ZM16.6455 2.57363C12.9244 2.15775 9.07491 2.15775 5.35387 2.57363C3.92333 2.73351 2.77827 3.86257 2.61276 5.27771C2.16814 9.07914 2.16814 12.9194 2.61276 16.7209C2.77827 18.136 3.92333 19.2651 5.35387 19.425C9.07491 19.8408 12.9244 19.8408 16.6455 19.425C18.076 19.2651 19.2211 18.136 19.3866 16.7209C19.8312 12.9194 19.8312 9.07914 19.3866 5.27771C19.2211 3.86257 18.076 2.73351 16.6455 2.57363Z" fill="#224462"/>
</svg>
