<svg width="29" height="30" viewBox="0 0 29 30" fill="none" xmlns="http://www.w3.org/2000/svg">
<g filter="url(#filter0_d_295_1515)">
<path fill-rule="evenodd" clip-rule="evenodd" d="M18.9212 2.33709C18.7453 2.16127 18.5069 2.0625 18.2582 2.0625C18.0096 2.0625 17.7711 2.16127 17.5953 2.33709L6.10485 13.8276C5.98707 13.9454 5.90279 14.0924 5.8607 14.2536L4.6107 19.0391C4.52658 19.3611 4.61951 19.7036 4.85485 19.9389C5.09019 20.1743 5.43267 20.2672 5.75469 20.1831L10.5402 18.9331C10.7014 18.891 10.8484 18.8067 10.9662 18.6889L22.4567 7.19845C22.8228 6.83233 22.8228 6.23874 22.4567 5.87262L18.9212 2.33709ZM7.61054 14.9735L18.2582 4.32583L20.468 6.53553L9.82025 17.1832L6.82929 17.9645L7.61054 14.9735Z" fill="#417DB5"/>
<path d="M5 22.0625C4.48223 22.0625 4.0625 22.4822 4.0625 23C4.0625 23.5178 4.48223 23.9375 5 23.9375H23.75C24.2678 23.9375 24.6875 23.5178 24.6875 23C24.6875 22.4822 24.2678 22.0625 23.75 22.0625H5Z" fill="#417DB5"/>
</g>
<defs>
<filter id="filter0_d_295_1515" x="0.0625" y="0.0625" width="28.625" height="29.875" filterUnits="userSpaceOnUse" color-interpolation-filters="sRGB">
<feFlood flood-opacity="0" result="BackgroundImageFix"/>
<feColorMatrix in="SourceAlpha" type="matrix" values="0 0 0 0 0 0 0 0 0 0 0 0 0 0 0 0 0 0 127 0" result="hardAlpha"/>
<feOffset dy="2"/>
<feGaussianBlur stdDeviation="2"/>
<feComposite in2="hardAlpha" operator="out"/>
<feColorMatrix type="matrix" values="0 0 0 0 0 0 0 0 0 0 0 0 0 0 0 0 0 0 0.25 0"/>
<feBlend mode="normal" in2="BackgroundImageFix" result="effect1_dropShadow_295_1515"/>
<feBlend mode="normal" in="SourceGraphic" in2="effect1_dropShadow_295_1515" result="shape"/>
</filter>
</defs>
</svg>
