<svg width="30" height="30" viewBox="0 0 30 30" fill="none" xmlns="http://www.w3.org/2000/svg">
<path fill-rule="evenodd" clip-rule="evenodd" d="M18.9212 4.33709C18.7453 4.16127 18.5069 4.0625 18.2582 4.0625C18.0096 4.0625 17.7711 4.16127 17.5953 4.33709L6.10485 15.8276C5.98707 15.9454 5.90279 16.0924 5.8607 16.2536L4.6107 21.0391C4.52658 21.3611 4.61951 21.7036 4.85485 21.9389C5.09019 22.1743 5.43267 22.2672 5.75469 22.1831L10.5402 20.9331C10.7014 20.891 10.8484 20.8067 10.9662 20.6889L22.4567 9.19845C22.8228 8.83233 22.8228 8.23874 22.4567 7.87262L18.9212 4.33709ZM7.61054 16.9735L18.2582 6.32583L20.468 8.53553L9.82025 19.1832L6.82929 19.9645L7.61054 16.9735Z" fill="#224462"/>
<path d="M5 24.0625C4.48223 24.0625 4.0625 24.4822 4.0625 25C4.0625 25.5178 4.48223 25.9375 5 25.9375H23.75C24.2678 25.9375 24.6875 25.5178 24.6875 25C24.6875 24.4822 24.2678 24.0625 23.75 24.0625H5Z" fill="#224462"/>
</svg>
