<svg width="30" height="30" viewBox="0 0 30 30" fill="none" xmlns="http://www.w3.org/2000/svg">
<path fill-rule="evenodd" clip-rule="evenodd" d="M16.4434 4.2004C15.6045 3.76257 14.4677 3.75581 13.6221 4.19252C10.3809 5.86645 7.44108 7.78574 4.86486 9.9145C4.46648 10.2437 4.18375 10.722 4.18858 11.2851C4.19338 11.8459 4.48186 12.3178 4.87782 12.6416C7.43264 14.7305 10.3749 16.6516 13.5568 18.3122C14.3957 18.7501 15.5324 18.7568 16.378 18.3201C19.6192 16.6462 22.559 14.7269 25.1353 12.5981C25.5336 12.269 25.8164 11.7906 25.8115 11.2275C25.8067 10.6668 25.5183 10.1948 25.1223 9.87107C22.5675 7.7821 19.6252 5.86108 16.4434 4.2004ZM14.4825 5.85846C14.7821 5.70375 15.2742 5.70521 15.5758 5.86263C18.6125 7.44752 21.4105 9.2709 23.8345 11.2404C21.396 13.2415 18.6063 15.059 15.5176 16.6542C15.218 16.8089 14.7259 16.8074 14.4243 16.65C11.3876 15.0651 8.58963 13.2417 6.1656 11.2723C8.6041 9.27113 11.3938 7.45364 14.4825 5.85846Z" fill="#224462"/>
<path d="M26.4964 15.8726C26.7706 16.3118 26.6368 16.8901 26.1976 17.1643L18.5636 21.9304C17.5276 22.5772 16.2424 22.8762 15 22.8763C13.7575 22.8764 12.4722 22.5775 11.4361 21.9309L3.88573 17.2187C3.44648 16.9446 3.31263 16.3663 3.58676 15.927C3.86089 15.4878 4.4392 15.3539 4.87844 15.6281L12.4289 20.3402C13.109 20.7647 14.033 21.0014 14.9998 21.0013C15.9667 21.0012 16.8906 20.7645 17.5706 20.34L25.2046 15.5739C25.6438 15.2997 26.2221 15.4334 26.4964 15.8726Z" fill="#224462"/>
<path d="M26.4963 20.5659C26.7705 21.0051 26.6369 21.5834 26.1977 21.8577L19.5866 25.9863C18.2645 26.8119 16.6108 27.2003 14.9999 27.2004C13.389 27.2005 11.7352 26.8122 10.413 25.9868L3.88563 21.912C3.44642 21.6379 3.31264 21.0595 3.58682 20.6203C3.86101 20.1811 4.43933 20.0473 4.87854 20.3215L11.4059 24.3963C12.3721 24.9995 13.6645 25.3255 14.9998 25.3254C16.335 25.3253 17.6273 24.9992 18.5934 24.3959L25.2045 20.2673C25.6437 19.9931 26.222 20.1268 26.4963 20.5659Z" fill="#224462"/>
</svg>
