<svg width="23" height="24" viewBox="0 0 23 24" fill="none" xmlns="http://www.w3.org/2000/svg">
<path fill-rule="evenodd" clip-rule="evenodd" d="M12.4402 3.36026C11.8211 3.00999 10.9821 3.00459 10.3579 3.35396C7.96568 4.6931 5.79584 6.22853 3.89438 7.93154C3.60034 8.19489 3.39167 8.57758 3.39523 9.02802C3.39877 9.47662 3.61169 9.85419 3.90395 10.1132C5.78961 11.7844 7.96123 13.3212 10.3097 14.6497C10.9289 15 11.7679 15.0054 12.392 14.656C14.7843 13.3169 16.9541 11.7815 18.8556 10.0785C19.1496 9.8151 19.3583 9.43242 19.3547 8.98197C19.3512 8.53338 19.1383 8.1558 18.846 7.89679C16.9603 6.22562 14.7887 4.6888 12.4402 3.36026ZM10.993 4.68671C11.2141 4.56294 11.5773 4.56411 11.7999 4.69004C14.0412 5.95796 16.1064 7.41666 17.8955 8.99223C16.0957 10.5932 14.0367 12.0471 11.757 13.3233C11.5359 13.4471 11.1726 13.4459 10.95 13.32C8.70871 12.052 6.64356 10.5933 4.85443 9.01777C6.65424 7.41684 8.71325 5.96285 10.993 4.68671Z" fill="#8C8C8C"/>
<path d="M19.8602 12.698C20.0625 13.0494 19.9638 13.512 19.6397 13.7314L14.0051 17.5443C13.2405 18.0617 12.2919 18.3009 11.3749 18.301C10.4579 18.301 9.50922 18.0619 8.74451 17.5446L3.1717 13.7749C2.8475 13.5556 2.74871 13.093 2.95104 12.7416C3.15337 12.3902 3.58021 12.2831 3.9044 12.5024L9.47722 16.2721C9.97925 16.6117 10.6612 16.801 11.3748 16.801C12.0884 16.8009 12.7703 16.6116 13.2722 16.2719L18.9068 12.459C19.2309 12.2397 19.6578 12.3467 19.8602 12.698Z" fill="#8C8C8C"/>
<path d="M19.8601 16.4527C20.0625 16.804 19.9639 17.2667 19.6397 17.4861L14.7602 20.7889C13.7844 21.4494 12.5638 21.7602 11.3749 21.7602C10.1859 21.7603 8.96523 21.4497 7.98932 20.7894L3.17163 17.5296C2.84746 17.3102 2.74872 16.8476 2.95108 16.4962C3.15345 16.1448 3.5803 16.0378 3.90447 16.2572L8.72217 19.517C9.43535 19.9995 10.3893 20.2603 11.3748 20.2602C12.3603 20.2602 13.3141 19.9993 14.0271 19.5167L18.9067 16.2138C19.2308 15.9944 19.6577 16.1013 19.8601 16.4527Z" fill="#8C8C8C"/>
</svg>
