<svg width="21" height="24" viewBox="0 0 21 24" fill="none" xmlns="http://www.w3.org/2000/svg">
<path d="M3.63548 10.5C2.92558 10.5 2.35254 11.17 2.35254 12C2.35254 12.83 2.92558 13.5 3.63548 13.5C4.34537 13.5 4.91841 12.83 4.91841 12C4.91841 11.17 4.34537 10.5 3.63548 10.5ZM3.63548 4.5C2.92558 4.5 2.35254 5.17 2.35254 6C2.35254 6.83 2.92558 7.5 3.63548 7.5C4.34537 7.5 4.91841 6.83 4.91841 6C4.91841 5.17 4.34537 4.5 3.63548 4.5ZM3.63548 16.5C2.92558 16.5 2.35254 17.18 2.35254 18C2.35254 18.82 2.93414 19.5 3.63548 19.5C4.33682 19.5 4.91841 18.82 4.91841 18C4.91841 17.18 4.34537 16.5 3.63548 16.5ZM6.20135 19H18.1754V17H6.20135V19ZM6.20135 13H18.1754V11H6.20135V13ZM6.20135 5V7H18.1754V5H6.20135Z" fill="black"/>
</svg>
