<svg width="26" height="26" viewBox="0 0 26 26" fill="none" xmlns="http://www.w3.org/2000/svg">
<path fill-rule="evenodd" clip-rule="evenodd" d="M15.2603 8.55929C13.7698 8.3927 12.2302 8.3927 10.7396 8.55929C9.61714 8.68475 8.70748 9.56825 8.57456 10.7047C8.3962 12.2297 8.3962 13.7703 8.57456 15.2953C8.70748 16.4318 9.61714 17.3153 10.7396 17.4407C12.2302 17.6073 13.7698 17.6073 15.2603 17.4407C16.3828 17.3153 17.2925 16.4318 17.4254 15.2953C17.6038 13.7703 17.6038 12.2297 17.4254 10.7047C17.2925 9.56825 16.3828 8.68475 15.2603 8.55929ZM10.9479 10.4227C12.3 10.2716 13.7 10.2716 15.0521 10.4227C15.3222 10.4529 15.5333 10.6671 15.5631 10.9225C15.7246 12.3028 15.7246 13.6972 15.5631 15.0775C15.5333 15.3329 15.3222 15.5471 15.0521 15.5773C13.7 15.7284 12.3 15.7284 10.9479 15.5773C10.6778 15.5471 10.4667 15.3329 10.4369 15.0775C10.2754 13.6972 10.2754 12.3028 10.4369 10.9225C10.4667 10.6671 10.6778 10.4529 10.9479 10.4227Z" fill="#224462"/>
<path fill-rule="evenodd" clip-rule="evenodd" d="M17.6875 1.75C17.6875 1.23223 17.2678 0.8125 16.75 0.8125C16.2322 0.8125 15.8125 1.23223 15.8125 1.75V4.90452C15.1897 4.86078 14.564 4.83163 13.9375 4.81707V3C13.9375 2.48223 13.5178 2.0625 13 2.0625C12.4822 2.0625 12.0625 2.48223 12.0625 3V4.81708C11.436 4.83163 10.8103 4.86078 10.1875 4.90452V1.75C10.1875 1.23223 9.76777 0.8125 9.25 0.8125C8.73223 0.8125 8.3125 1.23223 8.3125 1.75V5.09003C6.68758 5.386 5.39063 6.66989 5.10988 8.3125H1.75C1.23223 8.3125 0.8125 8.73223 0.8125 9.25C0.8125 9.76777 1.23223 10.1875 1.75 10.1875H4.92175C4.87611 10.8119 4.84569 11.437 4.83049 12.0625H3C2.48223 12.0625 2.0625 12.4822 2.0625 13C2.0625 13.5178 2.48223 13.9375 3 13.9375H4.83049C4.84569 14.563 4.87611 15.1881 4.92175 15.8125H1.75C1.23223 15.8125 0.8125 16.2322 0.8125 16.75C0.8125 17.2678 1.23223 17.6875 1.75 17.6875H5.10988C5.39063 19.3301 6.68758 20.614 8.3125 20.91V24.25C8.3125 24.7678 8.73223 25.1875 9.25 25.1875C9.76777 25.1875 10.1875 24.7678 10.1875 24.25V21.0955C10.8103 21.1392 11.436 21.1684 12.0625 21.1829V23C12.0625 23.5178 12.4822 23.9375 13 23.9375C13.5178 23.9375 13.9375 23.5178 13.9375 23V21.1829C14.564 21.1684 15.1897 21.1392 15.8125 21.0955V24.25C15.8125 24.7678 16.2322 25.1875 16.75 25.1875C17.2678 25.1875 17.6875 24.7678 17.6875 24.25V20.91C19.3124 20.614 20.6094 19.3301 20.8901 17.6875H24.25C24.7678 17.6875 25.1875 17.2678 25.1875 16.75C25.1875 16.2322 24.7678 15.8125 24.25 15.8125H21.0783C21.1239 15.1881 21.1543 14.563 21.1695 13.9375H23C23.5178 13.9375 23.9375 13.5178 23.9375 13C23.9375 12.4822 23.5178 12.0625 23 12.0625H21.1695C21.1543 11.437 21.1239 10.8119 21.0783 10.1875H24.25C24.7678 10.1875 25.1875 9.76777 25.1875 9.25C25.1875 8.73223 24.7678 8.3125 24.25 8.3125H20.8901C20.6094 6.66988 19.3124 5.38599 17.6875 5.09003V1.75ZM8.79169 6.91367C11.5652 6.6037 14.4349 6.6037 17.2083 6.91367C18.1747 7.02168 18.9462 7.78482 19.0574 8.73603C19.3887 11.569 19.3887 14.431 19.0574 17.264C18.9462 18.2152 18.1747 18.9783 17.2083 19.0863C14.4349 19.3963 11.5652 19.3963 8.79169 19.0863C7.82534 18.9783 7.05386 18.2152 6.9426 17.264C6.61126 14.431 6.61126 11.569 6.9426 8.73603C7.05386 7.78482 7.82534 7.02168 8.79169 6.91367Z" fill="#224462"/>
</svg>
