<svg width="53" height="50" viewBox="0 0 53 50" fill="none" xmlns="http://www.w3.org/2000/svg">
<path d="M51.9848 12.9733C52.3483 11.418 52.0068 10.8402 50.3681 10.8224C49.3213 10.8114 48.2742 10.7855 47.2278 10.7991C46.5683 9.90935 45.845 9.0687 45.0637 8.28375C44.5979 7.89899 44.1339 7.49994 43.6853 7.11364C42.7123 6.27695 41.7066 5.41111 40.6544 4.67231C32.6165 -0.984795 24.2649 -1.01662 15.8328 1.98357C10.8923 3.73948 7.09716 6.6367 4.48173 10.6253C3.57875 10.6189 2.67555 10.6163 1.77302 10.6088C0.136506 10.5954 -0.296764 11.2179 0.185673 12.7532C0.24462 13.0005 0.278519 13.2531 0.286857 13.5072C0.439545 15.2117 0.729551 16.9011 1.15406 18.5589C-0.943381 27.3088 1.07855 35.0382 7.17727 41.5394C7.33859 41.7102 7.50321 41.8807 7.66761 42.0442C10.9984 45.375 15.1469 47.4313 18.434 48.8622C19.8449 49.4783 27.084 50.2268 29.0427 49.9349C40.6829 48.1967 48.3431 41.6314 51.011 30.6477C51.5204 28.4962 51.774 26.2921 51.7667 24.0811C51.7611 22.194 51.5001 20.3164 50.9908 18.4994C51.0598 18.2729 51.1257 18.0461 51.1883 17.819C51.6211 16.251 51.613 14.5646 51.9848 12.9733ZM48.2254 17.6641C47.8909 18.8225 47.545 19.9562 47.144 21.0696C46.1798 23.7524 44.0586 25.0964 41.2417 25.1693C39.5005 25.2143 37.7202 25.2 36.0157 24.8916C32.4747 24.2507 30.0816 21.5288 29.5309 17.9419C29.3553 16.7977 29.6545 15.9885 30.7925 15.6665C33.1042 15.0133 35.3976 14.1702 37.7589 13.8489C40.4898 13.4771 43.2573 13.3743 46.0191 13.2343C46.9066 14.6301 47.646 16.1148 48.2254 17.6641ZM15.8655 4.65779C23.2638 1.58319 30.6872 1.04061 37.9274 5.64549C39.2512 6.48833 42.7806 9.34104 43.3361 9.76927L43.3719 9.79558L43.4013 9.82832C43.7059 10.1514 44.0158 10.505 44.3249 10.8819C40.1298 11.0627 35.9736 11.5414 31.9666 12.9545C30.7083 13.4232 29.5184 14.058 28.4284 14.8421C27.3457 15.5978 25.0544 15.6151 23.9535 14.8432C22.8042 14.0377 21.583 13.2547 20.2781 12.767C16.7977 11.4661 13.1305 10.9727 9.4413 10.758C8.90267 10.7267 8.36361 10.7041 7.82432 10.6859C9.96965 8.04731 12.7312 5.97709 15.8655 4.65779ZM6.19681 12.9821C7.15071 12.9764 8.09759 12.9821 9.04249 13.026C12.7738 13.197 16.475 13.6602 20.0084 14.9316C22.9901 16.0047 23.2302 16.0199 22.155 19.3919C20.9535 23.1596 17.9886 24.7777 14.2057 24.9774C12.7119 25.0296 11.2163 24.9597 9.73388 24.7687C7.87854 24.5617 6.52649 23.5598 5.54976 21.9388C4.84429 20.7418 4.30727 19.4532 3.95386 18.1094C3.96615 18.0655 3.97712 18.0227 3.98963 17.9797C4.49769 16.2223 5.24009 14.5413 6.19681 12.9821ZM3.12397 13.0085C3.08775 13.0818 3.05022 13.154 3.01422 13.228C3.00325 13.1549 2.99228 13.082 2.98108 13.0085H3.12397ZM49.3894 23.9307C49.3658 26.3381 49.0398 28.7331 48.4192 31.0593C46.5801 37.7438 42.1833 42.6156 34.9773 45.9478C27.6516 49.4553 17.146 45.9094 14.3508 44.064C11.2614 41.9518 8.55805 39.3241 6.35902 36.2958C3.81909 32.6995 2.73196 27.9447 3.0748 23.1254C3.1626 23.27 3.25215 23.4145 3.34631 23.5574C4.5017 25.3067 6.02627 26.5204 8.07651 27.0415C10.913 27.7911 13.8849 27.8709 16.7575 27.2746C20.9533 26.3894 23.5441 23.7916 24.7566 19.7462C24.9072 19.135 25.0261 18.5164 25.113 17.893H27.0162C27.0678 18.186 27.1163 18.4322 27.1543 18.6803C27.897 23.5211 31.0917 26.9234 35.9338 27.5608C38.2143 27.8611 40.587 27.6967 42.8958 27.484C45.793 27.2169 47.9592 25.6218 49.2171 23.0031C49.2629 22.9076 49.3071 22.8109 49.3521 22.7147C49.3801 23.1188 49.3942 23.5242 49.3891 23.9307H49.3894ZM48.7867 13.1924C48.9857 13.2122 49.2098 13.2339 49.4778 13.2539C49.3995 13.5201 49.3242 13.7835 49.2487 14.0467C49.101 13.7599 48.947 13.4751 48.7864 13.1924H48.7867Z" fill="#224462"/>
<path d="M36.7709 30.4817C36.1168 29.9705 35.2839 30.338 34.4983 31.5689C33.177 33.6395 31.3287 34.9012 28.9176 35.1977C27.1536 35.4145 25.3505 35.578 23.5853 35.4589C21.1527 35.2947 18.8358 34.6906 17.288 32.4738C17.0742 32.1676 16.1521 31.9815 15.8833 32.1801C15.6868 32.3649 15.5366 32.5935 15.4451 32.8472C15.3536 33.101 15.3232 33.3727 15.3565 33.6404C15.6587 34.9374 16.5856 35.8454 17.6947 36.5497C20.3323 38.2233 23.2866 38.5218 26.3928 38.5455C27.3256 38.4312 28.3463 38.3553 29.3496 38.1724C32.6529 37.5732 35.4645 36.2308 36.9239 32.951C37.301 32.1079 37.7051 31.212 36.7709 30.4817Z" fill="#224462"/>
</svg>
