<svg width="69" height="67" viewBox="0 0 69 67" fill="none" xmlns="http://www.w3.org/2000/svg">
<path d="M68.3256 17.7557C68.8014 15.7197 68.3543 14.9632 66.2091 14.94C64.8388 14.9256 63.468 14.8916 62.0983 14.9094C61.2349 13.7447 60.288 12.6442 59.2652 11.6166C58.6554 11.113 58.048 10.5906 57.4607 10.0849C56.187 8.98956 54.8704 7.8561 53.493 6.88894C42.9706 -0.516725 32.0377 -0.558388 20.9993 3.36914C14.5318 5.66779 9.56353 9.4605 6.1397 14.6819C4.95762 14.6735 3.77525 14.6701 2.59374 14.6603C0.451404 14.6428 -0.115785 15.4577 0.515768 17.4676C0.592935 17.7913 0.637312 18.122 0.648227 18.4546C0.84811 20.6859 1.22775 22.8975 1.78347 25.0677C-0.962266 36.5222 1.68463 46.6406 9.6684 55.1513C9.87959 55.3749 10.0951 55.5981 10.3103 55.8121C14.6705 60.1724 20.1014 62.8644 24.4045 64.7375C26.2514 65.544 35.7282 66.5239 38.2923 66.1417C53.5303 63.8664 63.5582 55.2717 67.0507 40.8931C67.7176 38.0766 68.0496 35.1912 68.04 32.2968C68.0327 29.8265 67.691 27.3685 67.0242 24.9899C67.1147 24.6934 67.2009 24.3965 67.2828 24.0992C67.8495 22.0465 67.8388 19.8389 68.3256 17.7557ZM63.4042 23.8963C62.9663 25.4129 62.5134 26.8969 61.9885 28.3545C60.7262 31.8666 57.9495 33.6259 54.2619 33.7213C51.9825 33.7802 49.6519 33.7615 47.4205 33.3578C42.785 32.5188 39.6522 28.9556 38.9313 24.26C38.7015 22.7622 39.0931 21.7028 40.5829 21.2813C43.6091 20.4262 46.6114 19.3226 49.7025 18.9019C53.2775 18.4152 56.9004 18.2807 60.5159 18.0974C61.6777 19.9247 62.6457 21.8682 63.4042 23.8963ZM21.0421 6.86993C30.7272 2.845 40.445 2.13472 49.9232 8.16292C51.6561 9.26627 56.2763 13.0007 57.0036 13.5613L57.0504 13.5958L57.0889 13.6386C57.4877 14.0616 57.8934 14.5245 58.298 15.0178C52.8063 15.2546 47.3654 15.8812 42.1198 17.7311C40.4727 18.3446 38.915 19.1757 37.4881 20.2021C36.0707 21.1914 33.0712 21.2141 31.63 20.2035C30.1255 19.149 28.5268 18.1241 26.8186 17.4857C22.2624 15.7827 17.4617 15.1367 12.6322 14.8557C11.9271 14.8146 11.2214 14.7851 10.5155 14.7612C13.3239 11.3071 16.939 8.59701 21.0421 6.86993ZM8.3849 17.7673C9.63364 17.7598 10.8732 17.7672 12.1101 17.8247C16.9948 18.0485 21.84 18.6548 26.4655 20.3193C30.3689 21.7241 30.6832 21.7439 29.2756 26.1582C27.7027 31.0905 23.8215 33.2087 18.8693 33.4702C16.9138 33.5385 14.9559 33.447 13.0152 33.1969C10.5864 32.926 8.81647 31.6143 7.53785 29.4924C6.61432 27.9254 5.91131 26.2384 5.44866 24.4793C5.46476 24.4219 5.47912 24.3658 5.4955 24.3095C6.16059 22.0089 7.13245 19.8084 8.3849 17.7673ZM4.36226 17.8018C4.31486 17.8977 4.26572 17.9923 4.2186 18.0891C4.20423 17.9934 4.18987 17.898 4.17521 17.8018H4.36226ZM64.9279 32.0999C64.897 35.2515 64.4703 38.3867 63.6579 41.4319C61.2503 50.1825 55.4945 56.5601 46.0612 60.9224C36.4712 65.5139 22.7184 60.8721 19.0592 58.4562C15.0149 55.6911 11.476 52.2513 8.59723 48.287C5.27224 43.579 3.84909 37.3546 4.2979 31.0457C4.41284 31.2351 4.53007 31.4241 4.65333 31.6112C6.16584 33.9012 8.16164 35.4901 10.8456 36.1722C14.5588 37.1535 18.4493 37.258 22.2098 36.4774C27.7024 35.3186 31.0941 31.9178 32.6813 26.622C32.8784 25.8219 33.0342 25.0121 33.1479 24.196H35.6394C35.7069 24.5796 35.7704 24.9019 35.8201 25.2266C36.7924 31.5637 40.9745 36.0177 47.3133 36.8521C50.2987 37.2452 53.4048 37.0299 56.4272 36.7515C60.22 36.4018 63.0556 34.3138 64.7023 30.8856C64.7624 30.7606 64.8201 30.6339 64.879 30.5081C64.9158 31.0371 64.9342 31.5678 64.9276 32.0999H64.9279ZM64.1389 18.0425C64.3995 18.0684 64.6928 18.0968 65.0437 18.123C64.9411 18.4715 64.8425 18.8163 64.7437 19.1608C64.5504 18.7854 64.3487 18.4126 64.1386 18.0425H64.1389Z" fill="#417DB5"/>
<path d="M48.4092 40.6763C47.553 40.0071 46.4626 40.4881 45.4342 42.0995C43.7045 44.8101 41.2849 46.4617 38.1285 46.8499C35.8193 47.1338 33.4588 47.3478 31.1481 47.1918C27.9636 46.9769 24.9306 46.1861 22.9043 43.2841C22.6244 42.8832 21.4174 42.6396 21.0654 42.8997C20.8081 43.1416 20.6116 43.4408 20.4918 43.7729C20.372 44.1051 20.3322 44.4609 20.3758 44.8113C20.7714 46.5091 21.9848 47.6978 23.4367 48.6198C26.8896 50.8107 30.7571 51.2015 34.8234 51.2325C36.0445 51.0828 37.3806 50.9834 38.694 50.7441C43.0183 49.9597 46.699 48.2023 48.6095 43.9088C49.1031 42.8051 49.6321 41.6322 48.4092 40.6763Z" fill="#417DB5"/>
</svg>
