<svg width="22" height="24" viewBox="0 0 22 24" fill="none" xmlns="http://www.w3.org/2000/svg">
<path fill-rule="evenodd" clip-rule="evenodd" d="M12.9473 2.91791C11.8591 1.87372 10.1409 1.87372 9.05272 2.91791L3.26968 8.46708C3.12798 8.60304 3.03267 8.78015 2.99726 8.9733C2.30459 12.7506 2.25346 16.6177 2.84602 20.412L2.98667 21.3126H6.70724V13.5484C6.70724 13.0307 7.12697 12.6109 7.64474 12.6109H14.3553C14.873 12.6109 15.2928 13.0307 15.2928 13.5484V21.3126H19.0133L19.154 20.412C19.7465 16.6177 19.6954 12.7506 19.0027 8.9733C18.9673 8.78015 18.872 8.60304 18.7303 8.46708L12.9473 2.91791ZM7.75454 1.56501C9.56822 -0.175317 12.4318 -0.175317 14.2455 1.56501L20.0285 7.11418C20.4542 7.52268 20.7406 8.05479 20.847 8.63511C21.5777 12.6196 21.6316 16.6988 21.0065 20.7013L20.7806 22.1481C20.6871 22.7465 20.1718 23.1876 19.5662 23.1876H14.3553C13.8375 23.1876 13.4178 22.7679 13.4178 22.2501V14.4859H8.58224V22.2501C8.58224 22.7679 8.16251 23.1876 7.64474 23.1876H2.43383C1.82822 23.1876 1.31287 22.7465 1.21942 22.1481L0.99347 20.7013C0.36841 16.6988 0.422344 12.6196 1.15301 8.63511C1.25942 8.05479 1.54578 7.52268 1.97149 7.11418L7.75454 1.56501Z" fill="#417DB5"/>
</svg>
