<svg width="30" height="30" viewBox="0 0 30 30" fill="none" xmlns="http://www.w3.org/2000/svg">
<path fill-rule="evenodd" clip-rule="evenodd" d="M16.9472 6.91782C15.859 5.87362 14.1409 5.87362 13.0527 6.91782L7.26963 12.467C7.12794 12.603 7.03263 12.7801 6.99721 12.9732C6.30455 16.7505 6.25342 20.6176 6.84597 24.4119L6.98662 25.3125H10.7072V17.5483C10.7072 17.0306 11.1269 16.6108 11.6447 16.6108H18.3552C18.873 16.6108 19.2927 17.0306 19.2927 17.5483V25.3125H23.0133L23.1539 24.4119C23.7465 20.6176 23.6954 16.7505 23.0027 12.9732C22.9673 12.7801 22.872 12.603 22.7303 12.467L16.9472 6.91782ZM11.7545 5.56492C13.5682 3.82459 16.4317 3.82459 18.2454 5.56492L24.0285 11.1141C24.4542 11.5226 24.7405 12.0547 24.847 12.635C25.5776 16.6196 25.6315 20.6987 25.0065 24.7012L24.7805 26.148C24.6871 26.7464 24.1717 27.1875 23.5661 27.1875H18.3552C17.8375 27.1875 17.4177 26.7678 17.4177 26.25V18.4858H12.5822V26.25C12.5822 26.7678 12.1625 27.1875 11.6447 27.1875H6.43378C5.82818 27.1875 5.31282 26.7464 5.21938 26.148L4.99342 24.7012C4.36836 20.6987 4.4223 16.6196 5.15296 12.635C5.25938 12.0547 5.54573 11.5226 5.97144 11.1141L11.7545 5.56492Z" fill="#224462"/>
</svg>
