<svg width="20" height="19" viewBox="0 0 20 19" fill="none" xmlns="http://www.w3.org/2000/svg">
<path d="M11 6.50005C11 7.05233 10.5523 7.50005 10 7.50005C9.44771 7.50005 9 7.05233 9 6.50005C9 5.94776 9.44771 5.50005 10 5.50005C10.5523 5.50005 11 5.94776 11 6.50005Z" fill="#19344C"/>
<path d="M10 9.25005C10.4142 9.25005 10.75 9.58584 10.75 10V15C10.75 15.4143 10.4142 15.75 10 15.75C9.58579 15.75 9.25 15.4143 9.25 15V10C9.25 9.58584 9.58579 9.25005 10 9.25005Z" fill="#19344C"/>
<path fill-rule="evenodd" clip-rule="evenodd" d="M12.2703 1.49268C11.1784 -0.10498 8.82159 -0.104986 7.72961 1.49268L7.29769 2.12463C4.59165 6.08384 2.26669 10.2905 0.353957 14.6881L0.263742 14.8956C-0.410313 16.4453 0.608051 18.205 2.2876 18.3927C7.41323 18.9656 12.5867 18.9656 17.7124 18.3927C19.3919 18.205 20.4103 16.4453 19.7362 14.8956L19.646 14.6881C17.7333 10.2905 15.4083 6.08385 12.7023 2.12463L12.2703 1.49268ZM8.96799 2.33909C9.46434 1.61288 10.5356 1.61288 11.032 2.33909L11.4639 2.97104C14.1165 6.85206 16.3955 10.9756 18.2705 15.2864L18.3607 15.4938C18.6321 16.1179 18.222 16.8264 17.5458 16.902C12.5309 17.4625 7.46911 17.4625 2.4542 16.902C1.77791 16.8264 1.36785 16.1179 1.63927 15.4938L1.72948 15.2864C3.60443 10.9756 5.88348 6.85205 8.53607 2.97104L8.96799 2.33909Z" fill="#19344C"/>
</svg>
