<svg width="30" height="32" viewBox="0 0 30 32" fill="none" xmlns="http://www.w3.org/2000/svg">
<g filter="url(#filter0_d_277_1694)">
<path d="M15 13.4375C15.5178 13.4375 15.9375 13.8572 15.9375 14.375V20.625C15.9375 21.1428 15.5178 21.5625 15 21.5625C14.4822 21.5625 14.0625 21.1428 14.0625 20.625V14.375C14.0625 13.8572 14.4822 13.4375 15 13.4375Z" fill="#417DB5"/>
<path d="M15 11.25C15.6904 11.25 16.25 10.6904 16.25 10C16.25 9.30964 15.6904 8.75 15 8.75C14.3096 8.75 13.75 9.30964 13.75 10C13.75 10.6904 14.3096 11.25 15 11.25Z" fill="#417DB5"/>
<path fill-rule="evenodd" clip-rule="evenodd" d="M4.0625 15C4.0625 8.95938 8.95938 4.0625 15 4.0625C21.0406 4.0625 25.9375 8.95938 25.9375 15C25.9375 21.0406 21.0406 25.9375 15 25.9375C8.95938 25.9375 4.0625 21.0406 4.0625 15ZM15 5.9375C9.99492 5.9375 5.9375 9.99492 5.9375 15C5.9375 20.0051 9.99492 24.0625 15 24.0625C20.0051 24.0625 24.0625 20.0051 24.0625 15C24.0625 9.99492 20.0051 5.9375 15 5.9375Z" fill="#417DB5"/>
</g>
<defs>
<filter id="filter0_d_277_1694" x="0.0625" y="2.0625" width="29.875" height="29.875" filterUnits="userSpaceOnUse" color-interpolation-filters="sRGB">
<feFlood flood-opacity="0" result="BackgroundImageFix"/>
<feColorMatrix in="SourceAlpha" type="matrix" values="0 0 0 0 0 0 0 0 0 0 0 0 0 0 0 0 0 0 127 0" result="hardAlpha"/>
<feOffset dy="2"/>
<feGaussianBlur stdDeviation="2"/>
<feComposite in2="hardAlpha" operator="out"/>
<feColorMatrix type="matrix" values="0 0 0 0 0 0 0 0 0 0 0 0 0 0 0 0 0 0 0.25 0"/>
<feBlend mode="normal" in2="BackgroundImageFix" result="effect1_dropShadow_277_1694"/>
<feBlend mode="normal" in="SourceGraphic" in2="effect1_dropShadow_277_1694" result="shape"/>
</filter>
</defs>
</svg>
