<svg width="21" height="24" viewBox="0 0 826 826" fill="none" xmlns="http://www.w3.org/2000/svg">
    <path fill-rule="evenodd" clip-rule="evenodd"
        d="M678.209 558.981L694.174 562.457L638.223 739.858H132V722.076H156.681C184.333 722.076 204.073 713.036 215.927 695.099C222.685 684.736 225.966 660.846 225.966 623.662V201.69C225.966 160.887 221.517 135.376 212.464 125.169C199.962 111.019 181.363 103.937 156.681 103.937H132V86H428.061V103.937C393.341 103.613 368.984 106.739 354.989 113.483C341.008 120.227 331.462 128.787 326.352 139.15C321.255 149.344 318.622 174.026 318.622 212.883V623.636C318.622 650.314 321.255 668.576 326.352 678.601C330.139 685.359 336.066 690.274 344.133 693.569C352.188 696.707 377.206 698.354 419.332 698.354H467.061C517.254 698.354 552.467 694.736 572.713 687.304C592.958 679.911 611.388 666.734 628.171 647.993C644.798 629.252 661.581 599.46 678.209 558.981Z"
        fill="black" />
</svg>