<svg width="28" height="26" viewBox="0 0 28 26" fill="none" xmlns="http://www.w3.org/2000/svg">
<path fill-rule="evenodd" clip-rule="evenodd" d="M13.237 21.2946C13.3969 21.3906 13.5679 21.433 13.7341 21.431C13.9003 21.433 14.0713 21.3906 14.2313 21.2946L15.6504 20.4431C18.4335 18.7733 21.8372 18.5005 24.8507 19.7059C25.9624 20.1506 27.1716 19.3319 27.1716 18.1346V3.56102C27.1716 2.83858 26.7318 2.18893 26.061 1.92062C22.1797 0.368077 17.7957 0.719355 14.211 2.87013L13.7341 3.15628L13.2572 2.87013C9.6726 0.719355 5.28859 0.368077 1.40723 1.92062C0.736468 2.18893 0.296631 2.83858 0.296631 3.56102V18.1346C0.296631 19.3319 1.50587 20.1506 2.61753 19.7059C5.63103 18.5005 9.03478 18.7733 11.8179 20.4431L13.237 21.2946ZM2.17163 3.63455V17.868C5.66637 16.558 9.57387 16.9101 12.7826 18.8353L12.7966 18.8438V4.78038L12.2925 4.47793C9.23131 2.64119 5.49205 2.33077 2.17163 3.63455ZM14.6857 18.8353L14.6716 18.8438V4.78038L15.1757 4.47793C18.237 2.64119 21.9762 2.33077 25.2966 3.63455V17.868C21.8019 16.558 17.8944 16.9101 14.6857 18.8353Z" fill="#E9F4FF"/>
<path d="M10.3281 21.8024C7.79826 20.3266 4.67 20.3266 2.14018 21.8024L2.01175 21.8773C1.56452 22.1382 1.41345 22.7122 1.67434 23.1595C1.93523 23.6067 2.50927 23.7578 2.95651 23.4969L3.08494 23.422C5.03095 22.2868 7.43731 22.2868 9.38332 23.422L10.7424 24.2148C12.5911 25.2932 14.8771 25.2932 16.7259 24.2148L18.0849 23.422C20.031 22.2868 22.4373 22.2868 24.3833 23.422L24.5118 23.4969C24.959 23.7578 25.533 23.6067 25.7939 23.1595C26.0548 22.7122 25.9037 22.1382 25.4565 21.8773L25.3281 21.8024C22.7983 20.3266 19.67 20.3266 17.1402 21.8024L15.7811 22.5952C14.5162 23.333 12.9521 23.333 11.6872 22.5952L10.3281 21.8024Z" fill="#E9F4FF"/>
</svg>
