<svg width="31" height="30" viewBox="0 0 31 30" fill="none" xmlns="http://www.w3.org/2000/svg">
<path fill-rule="evenodd" clip-rule="evenodd" d="M14.9294 23.295C15.0893 23.391 15.2603 23.4335 15.4265 23.4314C15.5927 23.4335 15.7637 23.391 15.9237 23.295L17.3428 22.4436C20.1259 20.7737 23.5296 20.501 26.5431 21.7064C27.6548 22.151 28.864 21.3323 28.864 20.135V5.56144C28.864 4.83901 28.4242 4.18935 27.7534 3.92105C23.8721 2.3685 19.4881 2.71978 15.9034 4.87056L15.4265 5.1567L14.9496 4.87056C11.365 2.71978 6.98098 2.3685 3.09962 3.92105C2.42885 4.18935 1.98901 4.83901 1.98901 5.56144V20.135C1.98901 21.3323 3.19825 22.151 4.30991 21.7064C7.32341 20.501 10.7272 20.7737 13.5103 22.4436L14.9294 23.295ZM3.86401 5.63498V19.8685C7.35875 18.5584 11.2663 18.9105 14.475 20.8358L14.489 20.8442V6.78081L13.9849 6.47836C10.9237 4.64162 7.18443 4.33119 3.86401 5.63498ZM16.3781 20.8358L16.364 20.8442V6.78081L16.8681 6.47836C19.9293 4.64162 23.6686 4.33119 26.989 5.63498V19.8685C23.4943 18.5584 19.5868 18.9105 16.3781 20.8358Z" fill="#E9F4FF"/>
<path d="M12.0205 23.8028C9.49064 22.3271 6.36238 22.3271 3.83256 23.8028L3.70413 23.8777C3.2569 24.1386 3.10583 24.7127 3.36672 25.1599C3.62761 25.6071 4.20166 25.7582 4.64889 25.4973L4.77732 25.4224C6.72334 24.2872 9.12969 24.2872 11.0757 25.4224L12.4348 26.2152C14.2835 27.2936 16.5695 27.2936 18.4182 26.2152L19.7773 25.4224C21.7233 24.2872 24.1297 24.2872 26.0757 25.4224L26.2041 25.4973C26.6514 25.7582 27.2254 25.6071 27.4863 25.1599C27.7472 24.7127 27.5961 24.1386 27.1489 23.8777L27.0205 23.8028C24.4906 22.3271 21.3624 22.3271 18.8326 23.8028L17.4735 24.5956C16.2086 25.3335 14.6444 25.3335 13.3795 24.5956L12.0205 23.8028Z" fill="#E9F4FF"/>
</svg>
