<svg width="30" height="31" viewBox="0 0 30 31" fill="none" xmlns="http://www.w3.org/2000/svg">
<g filter="url(#filter0_d_65_688)">
<path d="M15 22.8125C14.4822 22.8125 14.0625 23.2322 14.0625 23.75C14.0625 24.2678 14.4822 24.6875 15 24.6875H22.5C23.7081 24.6875 24.6875 23.7081 24.6875 22.5V7.5C24.6875 6.29188 23.7081 5.3125 22.5 5.3125H15C14.4822 5.3125 14.0625 5.73223 14.0625 6.25C14.0625 6.76777 14.4822 7.1875 15 7.1875L22.5 7.1875C22.6726 7.1875 22.8125 7.32741 22.8125 7.5L22.8125 22.5C22.8125 22.6726 22.6726 22.8125 22.5 22.8125H15Z" fill="#417DB5"/>
<path fill-rule="evenodd" clip-rule="evenodd" d="M18.1288 17.9565C18.9918 17.9565 19.6913 17.257 19.6913 16.394V13.5934C19.6913 12.7304 18.9918 12.0309 18.1288 12.0309L12.3631 12.0309C12.3549 11.9391 12.3464 11.8473 12.3375 11.7556L12.27 11.0608C12.1669 10.0006 11.0412 9.36573 10.0806 9.82605C8.03786 10.805 6.18856 12.1447 4.62169 13.7807L4.49769 13.9101C3.91744 14.516 3.91744 15.4714 4.49769 16.0772L4.62169 16.2067C6.18856 17.8427 8.03786 19.1823 10.0806 20.1613C11.0412 20.6217 12.1669 19.9868 12.27 18.9266L12.3375 18.2318C12.3464 18.1401 12.3549 18.0483 12.3631 17.9565H18.1288ZM11.4939 16.0815C11.1609 16.0815 10.8666 16.2556 10.7001 16.52C10.619 16.6487 10.5683 16.7988 10.5582 16.9607C10.5355 17.3243 10.5066 17.6876 10.4713 18.0504L10.4517 18.2521C9.15663 17.5847 7.95395 16.7535 6.87297 15.7799C6.59253 15.5273 6.32027 15.2651 6.05672 14.9937C7.33615 13.6761 8.82064 12.5759 10.4517 11.7353L10.4713 11.937C10.5066 12.2998 10.5355 12.6631 10.5582 13.0267C10.589 13.5209 10.9988 13.9059 11.4939 13.9059H17.8163V16.0815H11.4939Z" fill="#417DB5"/>
</g>
<defs>
<filter id="filter0_d_65_688" x="-4" y="-2" width="38" height="38" filterUnits="userSpaceOnUse" color-interpolation-filters="sRGB">
<feFlood flood-opacity="0" result="BackgroundImageFix"/>
<feColorMatrix in="SourceAlpha" type="matrix" values="0 0 0 0 0 0 0 0 0 0 0 0 0 0 0 0 0 0 127 0" result="hardAlpha"/>
<feOffset dy="2"/>
<feGaussianBlur stdDeviation="2"/>
<feComposite in2="hardAlpha" operator="out"/>
<feColorMatrix type="matrix" values="0 0 0 0 0 0 0 0 0 0 0 0 0 0 0 0 0 0 0.25 0"/>
<feBlend mode="normal" in2="BackgroundImageFix" result="effect1_dropShadow_65_688"/>
<feBlend mode="normal" in="SourceGraphic" in2="effect1_dropShadow_65_688" result="shape"/>
</filter>
</defs>
</svg>
