<svg width="24" height="25" viewBox="0 0 24 25" fill="none" xmlns="http://www.w3.org/2000/svg">
<path fill-rule="evenodd" clip-rule="evenodd" d="M10.5067 1.78733C10.6884 1.57824 10.9706 1.48635 11.2406 1.54834C14.8494 2.37685 16.6735 6.33147 16.2445 9.86959C16.0778 11.245 15.6658 12.3232 15.0592 13.1811C15.0555 13.1864 15.0517 13.1916 15.048 13.1968C15.1858 13.1291 15.3129 13.056 15.4319 12.9788C16.0238 12.5946 16.4583 12.0876 17.0239 11.4274C17.0923 11.3476 17.1626 11.2656 17.2353 11.1813C17.3987 10.9918 17.6459 10.8962 17.8942 10.9266C18.1426 10.9569 18.3595 11.1091 18.4725 11.3324C18.97 12.3156 19.25 13.4272 19.25 14.6019C19.25 18.606 16.0041 21.8519 12 21.8519C7.99594 21.8519 4.75 18.606 4.75 14.6019C4.75 12.0649 6.05371 9.8328 8.02431 8.53835L8.09187 8.47028C8.12658 8.4353 8.16464 8.40384 8.20552 8.37633C9.07138 7.79369 9.69312 7.31715 10.1117 6.75673C10.5071 6.22731 10.75 5.58149 10.75 4.60194C10.75 3.87666 10.6161 3.18442 10.3723 2.54738C10.2733 2.28866 10.3249 1.99642 10.5067 1.78733ZM12.1712 3.53011C12.2231 3.88009 12.25 4.23801 12.25 4.60194C12.25 5.87035 11.9223 6.83924 11.3135 7.65435C10.7417 8.41984 9.95028 9.00777 9.10466 9.57919L9.03236 9.65205C8.99362 9.69108 8.95071 9.72574 8.90439 9.75539C7.30647 10.7784 6.25 12.567 6.25 14.6019C6.25 17.7776 8.82436 20.3519 12 20.3519C15.1756 20.3519 17.75 17.7776 17.75 14.6019C17.75 14.0821 17.6812 13.579 17.5523 13.101C17.1721 13.5127 16.7524 13.91 16.2485 14.237C15.3253 14.8362 14.1699 15.1783 12.5 15.1783C12.1577 15.1783 11.8589 14.9466 11.7736 14.6151C11.6884 14.2837 11.8383 13.9365 12.1381 13.7714C12.8169 13.3974 13.3923 12.9403 13.8345 12.315C14.2757 11.6911 14.6137 10.858 14.7555 9.68904C15.0623 7.1583 14.0149 4.66036 12.1712 3.53011Z" fill="#8C8C8C"/>
</svg>
