<svg width="50" height="50" viewBox="0 0 50 50" fill="none" xmlns="http://www.w3.org/2000/svg">
<path d="M25.1303 4.30163C24.5269 4.03707 23.9326 4.22215 23.5503 4.6115C23.1789 4.9897 22.9932 5.56694 23.1234 6.14893C23.329 7.06756 23.4375 8.02329 23.4375 9.005C23.4375 11.2463 22.8726 12.8161 21.9006 14.1175C20.9126 15.4404 19.4823 16.5174 17.6764 17.7325C17.648 17.7516 17.6216 17.7735 17.5974 17.7978L17.3787 18.0182C13.5041 20.5214 10.9375 24.88 10.9375 29.8383C10.9375 37.6048 17.2335 43.9008 25 43.9008C32.7665 43.9008 39.0625 37.6048 39.0625 29.8383C39.0625 27.558 38.5194 25.403 37.5549 23.4972C37.4764 23.3421 37.3258 23.2364 37.1533 23.2153C36.9809 23.1943 36.8092 23.2606 36.6957 23.3922C36.5489 23.5625 36.405 23.7306 36.2633 23.8962C34.4335 26.0341 32.9569 27.7594 29.9295 28.53C29.8008 28.5628 29.7208 28.5385 29.664 28.503C29.5972 28.4613 29.5242 28.378 29.4741 28.2449C29.3697 27.9675 29.4145 27.6139 29.6283 27.382C31.2475 25.6266 32.3977 23.2437 32.8087 19.8539C33.5786 13.5041 30.6927 6.74037 25.1303 4.30163Z" fill="#224462"/>
</svg>
