<svg width="50" height="50" viewBox="0 0 50 50" fill="none" xmlns="http://www.w3.org/2000/svg">
<path fill-rule="evenodd" clip-rule="evenodd" d="M21.8886 3.14109C22.2671 2.70548 22.855 2.51404 23.4175 2.64318C30.9359 4.36925 34.7362 12.608 33.8425 19.9791C33.4951 22.8445 32.6368 25.0909 31.3729 26.8781C31.3652 26.889 31.3575 26.8999 31.3497 26.9108C31.6368 26.7697 31.9016 26.6175 32.1495 26.4566C33.3826 25.6563 34.2877 24.5999 35.4662 23.2246C35.6086 23.0583 35.7551 22.8874 35.9066 22.7118C36.247 22.317 36.7619 22.118 37.2793 22.1812C37.7968 22.2444 38.2486 22.5615 38.484 23.0267C39.5206 25.075 40.1038 27.3907 40.1038 29.8382C40.1038 38.18 33.3415 44.9423 24.9997 44.9423C16.6579 44.9423 9.89551 38.18 9.89551 29.8382C9.89551 24.5527 12.6116 19.9025 16.717 17.2057L16.8577 17.0639C16.93 16.991 17.0093 16.9255 17.0945 16.8682C18.8984 15.6543 20.1937 14.6616 21.0657 13.494C21.8895 12.391 22.3955 11.0456 22.3955 9.00485C22.3955 7.49385 22.1165 6.05168 21.6086 4.72453C21.4023 4.18552 21.51 3.5767 21.8886 3.14109ZM25.3564 6.77187C25.4645 7.50099 25.5205 8.24668 25.5205 9.00485C25.5205 11.6474 24.8378 13.6659 23.5694 15.364C22.3783 16.9588 20.7294 18.1837 18.9677 19.3741L18.8171 19.5259C18.7364 19.6072 18.647 19.6794 18.5505 19.7412C15.2215 21.8725 13.0205 25.5988 13.0205 29.8382C13.0205 36.4541 18.3838 41.8173 24.9997 41.8173C31.6156 41.8173 36.9788 36.4541 36.9788 29.8382C36.9788 28.7552 36.8355 27.7071 36.567 26.7111C35.7749 27.5689 34.9006 28.3966 33.8508 29.0779C31.9273 30.3263 29.5204 31.0389 26.0413 31.0389C25.3283 31.0389 24.7057 30.5562 24.5281 29.8657C24.3505 29.1751 24.6629 28.4519 25.2874 28.1079C26.7016 27.3288 27.9003 26.3764 28.8214 25.0738C29.7407 23.774 30.4449 22.0384 30.7402 19.603C31.3795 14.3306 29.1975 9.12657 25.3564 6.77187Z" fill="#224462"/>
</svg>
