<svg width="24" height="25" viewBox="0 0 24 25" fill="current" stroke="current" xmlns="http://www.w3.org/2000/svg">
<path d="M12.0625 2.34462C11.7729 2.21764 11.4876 2.30647 11.3041 2.49336C11.1259 2.6749 11.0367 2.95197 11.0992 3.23133C11.1979 3.67227 11.25 4.13102 11.25 4.60224C11.25 5.67808 10.9789 6.43159 10.5123 7.05624C10.038 7.69122 9.35149 8.20818 8.48466 8.79146C8.47103 8.80063 8.45834 8.81112 8.44678 8.82278L8.34179 8.92857C6.48195 10.1301 5.25 12.2222 5.25 14.6022C5.25 18.3302 8.27208 21.3522 12 21.3522C15.7279 21.3522 18.75 18.3302 18.75 14.6022C18.75 13.5077 18.4893 12.4733 18.0264 11.5585C17.9887 11.4841 17.9164 11.4333 17.8336 11.4232C17.7508 11.4131 17.6684 11.4449 17.614 11.5081C17.5435 11.5898 17.4744 11.6705 17.4064 11.75C16.5281 12.7762 15.8193 13.6043 14.3662 13.9743C14.3044 13.99 14.266 13.9783 14.2387 13.9613C14.2067 13.9413 14.1716 13.9013 14.1476 13.8374C14.0975 13.7043 14.119 13.5345 14.2216 13.4232C14.9988 12.5806 15.5509 11.4368 15.7482 9.80971C16.1177 6.76181 14.7325 3.51522 12.0625 2.34462Z" fill="current"/>
</svg>
