<svg width="31" height="30" viewBox="0 0 31 30" fill="none" xmlns="http://www.w3.org/2000/svg">
<path fill-rule="evenodd" clip-rule="evenodd" d="M25.1875 15C25.1875 14.4822 24.7678 14.0625 24.25 14.0625H6.75C6.23223 14.0625 5.8125 14.4822 5.8125 15C5.8125 15.5178 6.23223 15.9375 6.75 15.9375H24.25C24.7678 15.9375 25.1875 15.5178 25.1875 15Z" fill="#417DB5"/>
<path fill-rule="evenodd" clip-rule="evenodd" d="M25.1875 8.75C25.1875 8.23223 24.7678 7.8125 24.25 7.8125H6.75C6.23223 7.8125 5.8125 8.23223 5.8125 8.75C5.8125 9.26777 6.23223 9.6875 6.75 9.6875H24.25C24.7678 9.6875 25.1875 9.26777 25.1875 8.75Z" fill="#417DB5"/>
<path fill-rule="evenodd" clip-rule="evenodd" d="M25.1875 21.25C25.1875 20.7322 24.7678 20.3125 24.25 20.3125H6.75C6.23223 20.3125 5.8125 20.7322 5.8125 21.25C5.8125 21.7678 6.23223 22.1875 6.75 22.1875H24.25C24.7678 22.1875 25.1875 21.7678 25.1875 21.25Z" fill="#417DB5"/>
</svg>
