<svg width="20" height="27" viewBox="0 0 20 27" fill="none" xmlns="http://www.w3.org/2000/svg">
    <path
        d="M7.5 0.8125C6.98223 0.8125 6.5625 1.23223 6.5625 1.75V2.6875H1.25C0.732233 2.6875 0.3125 3.10723 0.3125 3.625C0.3125 4.14277 0.732233 4.5625 1.25 4.5625H18.75C19.2678 4.5625 19.6875 4.14277 19.6875 3.625C19.6875 3.10723 19.2678 2.6875 18.75 2.6875H13.4375V1.75C13.4375 1.23223 13.0178 0.8125 12.5 0.8125H7.5Z"
        fill="current" />
    <path
        d="M7.5 11.3125C8.01777 11.3125 8.4375 11.7322 8.4375 12.25L8.4375 21C8.4375 21.5178 8.01777 21.9375 7.5 21.9375C6.98223 21.9375 6.5625 21.5178 6.5625 21L6.5625 12.25C6.5625 11.7322 6.98223 11.3125 7.5 11.3125Z"
        fill="current" />
    <path
        d="M13.4375 12.25C13.4375 11.7322 13.0178 11.3125 12.5 11.3125C11.9822 11.3125 11.5625 11.7322 11.5625 12.25V21C11.5625 21.5178 11.9822 21.9375 12.5 21.9375C13.0178 21.9375 13.4375 21.5178 13.4375 21V12.25Z"
        fill="current" />
    <path fill-rule="evenodd" clip-rule="evenodd"
        d="M2.48928 7.89647C2.54203 7.42169 2.94334 7.0625 3.42105 7.0625H16.5789C17.0566 7.0625 17.458 7.42169 17.5107 7.89647L17.7609 10.1482C18.2144 14.2298 18.2144 18.3491 17.7609 22.4308L17.7363 22.6525C17.5562 24.2727 16.3006 25.5646 14.6861 25.7906C11.5772 26.2258 8.42278 26.2258 5.31385 25.7906C3.69943 25.5646 2.44375 24.2727 2.26372 22.6525L2.23909 22.4308C1.78558 18.3491 1.78558 14.2298 2.23909 10.1482L2.48928 7.89647ZM4.26015 8.9375L4.10263 10.3552C3.6644 14.2992 3.6644 18.2797 4.10263 22.2237L4.12726 22.4454C4.21263 23.2138 4.80815 23.8265 5.57381 23.9337C8.51028 24.3448 11.4897 24.3448 14.4262 23.9337C15.1918 23.8265 15.7874 23.2138 15.8727 22.4454L15.8974 22.2237C16.3356 18.2797 16.3356 14.2992 15.8974 10.3552L15.7398 8.9375H4.26015Z"
        fill="current" />
</svg>